<svg width="100" height="30" viewBox="0 0 100 30" fill="none" xmlns="http://www.w3.org/2000/svg">
<path d="M96.2963 30H3.7037C1.66759 30 0 28.3116 0 26.25V3.75C0 1.68844 1.66759 1.58548e-06 3.7037 1.58548e-06H96.2963C98.3324 1.58548e-06 100 1.68844 100 3.75V26.25C100 28.3116 98.3324 30 96.2963 30Z" fill="black"/>
<path d="M96.2963 0.600937C98.0111 0.600937 99.4065 2.01375 99.4065 3.75V26.25C99.4065 27.9863 98.0111 29.3991 96.2963 29.3991H3.7037C1.98889 29.3991 0.593518 27.9863 0.593518 26.25V3.75C0.593518 2.01375 1.98889 0.600937 3.7037 0.600937H96.2963ZM96.2963 1.58548e-06H3.7037C1.66759 1.58548e-06 0 1.68844 0 3.75V26.25C0 28.3116 1.66759 30 3.7037 30H96.2963C98.3324 30 100 28.3116 100 26.25V3.75C100 1.68844 98.3324 1.58548e-06 96.2963 1.58548e-06Z" fill="#A6A6A6"/>
<path d="M35.1241 7.68293C35.1241 8.30918 34.9389 8.81074 34.5741 9.1848C34.1546 9.62824 33.6083 9.85136 32.9389 9.85136C32.2991 9.85136 31.7528 9.62449 31.3046 9.1773C30.8555 8.72355 30.6315 8.16668 30.6315 7.50011C30.6315 6.83355 30.8555 6.27668 31.3046 5.82668C31.7528 5.37574 32.2991 5.14886 32.9389 5.14886C33.2574 5.14886 33.5611 5.21543 33.8509 5.33918C34.1398 5.46386 34.375 5.63261 34.5454 5.84074L34.1583 6.23637C33.8611 5.88105 33.4565 5.70574 32.9389 5.70574C32.4722 5.70574 32.0676 5.87074 31.7241 6.20355C31.3842 6.5373 31.2139 6.96949 31.2139 7.50011C31.2139 8.03074 31.3842 8.46668 31.7241 8.80043C32.0676 9.12949 32.4722 9.29824 32.9389 9.29824C33.4342 9.29824 33.8509 9.12949 34.1796 8.79668C34.3963 8.57636 34.5194 8.27261 34.5518 7.88449H32.9389V7.34261H35.0907C35.1167 7.4598 35.1241 7.57324 35.1241 7.68293Z" fill="white" stroke="white" stroke-width="0.16" stroke-miterlimit="10"/>
<path d="M38.538 5.80408H36.5167V7.22908H38.3389V7.77095H36.5167V9.19595H38.538V9.74814H35.9445V5.25189H38.538V5.80408Z" fill="white" stroke="white" stroke-width="0.16" stroke-miterlimit="10"/>
<path d="M40.9473 9.74814H40.3751V5.80408H39.1353V5.25189H42.188V5.80408H40.9473V9.74814Z" fill="white" stroke="white" stroke-width="0.16" stroke-miterlimit="10"/>
<path d="M44.3972 9.74814V5.25189H44.9685V9.74814H44.3972Z" fill="white" stroke="white" stroke-width="0.16" stroke-miterlimit="10"/>
<path d="M47.501 9.74814H46.9334V5.80408H45.689V5.25189H48.7454V5.80408H47.501V9.74814Z" fill="white" stroke="white" stroke-width="0.16" stroke-miterlimit="10"/>
<path d="M54.525 9.1698C54.087 9.62449 53.5444 9.85136 52.8972 9.85136C52.2463 9.85136 51.7037 9.62449 51.2657 9.1698C50.8287 8.71605 50.6111 8.15918 50.6111 7.50011C50.6111 6.84105 50.8287 6.28418 51.2657 5.83043C51.7037 5.37574 52.2463 5.14886 52.8972 5.14886C53.5407 5.14886 54.0833 5.37574 54.5213 5.83418C54.962 6.29168 55.1796 6.8448 55.1796 7.50011C55.1796 8.15918 54.962 8.71605 54.525 9.1698ZM51.6889 8.79293C52.0185 9.12949 52.4194 9.29824 52.8972 9.29824C53.3713 9.29824 53.7759 9.12949 54.1018 8.79293C54.4305 8.45636 54.5972 8.02418 54.5972 7.50011C54.5972 6.97605 54.4305 6.54387 54.1018 6.2073C53.7759 5.87074 53.3713 5.70199 52.8972 5.70199C52.4194 5.70199 52.0185 5.87074 51.6889 6.2073C51.3602 6.54387 51.1935 6.97605 51.1935 7.50011C51.1935 8.02418 51.3602 8.45636 51.6889 8.79293Z" fill="white" stroke="white" stroke-width="0.16" stroke-miterlimit="10"/>
<path d="M55.9824 9.74814V5.25189H56.6769L58.8361 8.74877H58.8611L58.8361 7.88439V5.25189H59.4074V9.74814H58.8111L56.55 6.07877H56.525L56.55 6.94689V9.74814H55.9824Z" fill="white" stroke="white" stroke-width="0.16" stroke-miterlimit="10"/>
<path d="M50.4704 16.3145C48.7306 16.3145 47.3093 17.6551 47.3093 19.5048C47.3093 21.3395 48.7306 22.6942 50.4704 22.6942C52.2139 22.6942 53.6352 21.3395 53.6352 19.5048C53.6352 17.6551 52.2139 16.3145 50.4704 16.3145ZM50.4704 21.4379C49.5158 21.4379 48.6945 20.6401 48.6945 19.5048C48.6945 18.3545 49.5158 17.5707 50.4704 17.5707C51.425 17.5707 52.25 18.3545 52.25 19.5048C52.25 20.6401 51.425 21.4379 50.4704 21.4379ZM43.5732 16.3145C41.8296 16.3145 40.4121 17.6551 40.4121 19.5048C40.4121 21.3395 41.8296 22.6942 43.5732 22.6942C45.3158 22.6942 46.7343 21.3395 46.7343 19.5048C46.7343 17.6551 45.3158 16.3145 43.5732 16.3145ZM43.5732 21.4379C42.6176 21.4379 41.7935 20.6401 41.7935 19.5048C41.7935 18.3545 42.6176 17.5707 43.5732 17.5707C44.5278 17.5707 45.3491 18.3545 45.3491 19.5048C45.3491 20.6401 44.5278 21.4379 43.5732 21.4379ZM35.3658 17.2923V18.6479H38.563C38.4695 19.4054 38.2195 19.9623 37.8361 20.3504C37.3695 20.8192 36.6426 21.3395 35.3658 21.3395C33.3982 21.3395 31.8574 19.7317 31.8574 17.7395C31.8574 15.7473 33.3982 14.1395 35.3658 14.1395C36.4297 14.1395 37.2037 14.5604 37.775 15.106L38.7185 14.1507C37.9195 13.3782 36.8565 12.7848 35.3658 12.7848C32.6676 12.7848 30.4 15.0076 30.4 17.7395C30.4 20.4714 32.6676 22.6942 35.3658 22.6942C36.8241 22.6942 37.9195 22.2104 38.7806 21.3029C39.663 20.4095 39.938 19.1532 39.938 18.1389C39.938 17.8239 39.9121 17.5342 39.8658 17.2923H35.3658ZM68.9269 18.3432C68.6667 17.6298 67.8639 16.3145 66.2287 16.3145C64.6083 16.3145 63.2593 17.6073 63.2593 19.5048C63.2593 21.2917 64.5945 22.6942 66.3843 22.6942C67.8315 22.6942 68.6667 21.8007 69.0102 21.2804L67.9361 20.5557C67.5778 21.0864 67.0898 21.4379 66.3843 21.4379C65.6833 21.4379 65.1806 21.1126 64.8583 20.4714L69.0722 18.706L68.9269 18.3432ZM64.6306 19.4054C64.5945 18.1754 65.5741 17.5454 66.2759 17.5454C66.8259 17.5454 67.2926 17.8239 67.4482 18.2223L64.6306 19.4054ZM61.2056 22.5001H62.5908V13.1251H61.2056V22.5001ZM58.9371 17.0251H58.8908C58.5796 16.652 57.9861 16.3145 57.2343 16.3145C55.6565 16.3145 54.2139 17.717 54.2139 19.5151C54.2139 21.3029 55.6565 22.6942 57.2343 22.6942C57.9861 22.6942 58.5796 22.3539 58.8908 21.9695H58.9371V22.427C58.9371 23.6467 58.2935 24.302 57.2556 24.302C56.4093 24.302 55.8843 23.6832 55.6676 23.1629L54.463 23.672C54.8102 24.5176 55.7296 25.5582 57.2556 25.5582C58.8796 25.5582 60.25 24.5907 60.25 22.2367V16.5085H58.9371V17.0251ZM57.3528 21.4379C56.3982 21.4379 55.5991 20.6289 55.5991 19.5151C55.5991 18.391 56.3982 17.5707 57.3528 17.5707C58.2935 17.5707 59.0352 18.391 59.0352 19.5151C59.0352 20.6289 58.2935 21.4379 57.3528 21.4379ZM75.412 13.1251H72.0991V22.5001H73.4806V18.9479H75.412C76.9463 18.9479 78.4509 17.8239 78.4509 16.036C78.4509 14.2492 76.9426 13.1251 75.412 13.1251ZM75.4482 17.6439H73.4806V14.4292H75.4482C76.4796 14.4292 77.0685 15.2964 77.0685 16.036C77.0685 16.7617 76.4796 17.6439 75.4482 17.6439ZM83.988 16.2967C82.9898 16.2967 81.9519 16.7429 81.525 17.732L82.7509 18.2523C83.0148 17.732 83.5 17.5632 84.013 17.5632C84.7296 17.5632 85.4565 17.9992 85.4676 18.7689V18.8673C85.2176 18.721 84.6824 18.5045 84.0241 18.5045C82.7037 18.5045 81.3583 19.2404 81.3583 20.6139C81.3583 21.8701 82.4398 22.6792 83.6556 22.6792C84.5852 22.6792 85.0982 22.2545 85.4204 21.7604H85.4676V22.4851H86.8019V18.8889C86.8019 17.2267 85.5759 16.2967 83.988 16.2967ZM83.8213 21.4342C83.3695 21.4342 82.7398 21.2073 82.7398 20.6401C82.7398 19.9145 83.525 19.636 84.2046 19.636C84.813 19.636 85.0982 19.772 85.4676 19.951C85.3593 20.8192 84.6213 21.4342 83.8213 21.4342ZM91.663 16.502L90.075 20.566H90.0278L88.3861 16.502H86.8963L89.363 22.1814L87.9556 25.3417H89.3991L93.2 16.502H91.663ZM79.2102 22.5001H80.5954V13.1251H79.2102V22.5001Z" fill="white"/>
<path d="M7.72963 5.65414C7.51203 5.88476 7.38611 6.24383 7.38611 6.70883V23.2951C7.38611 23.7601 7.51203 24.1191 7.72963 24.3498L7.78333 24.4004L16.963 15.1098V14.8904L7.78333 5.59976L7.72963 5.65414Z" fill="url(#paint0_linear_102_242)"/>
<path d="M20.0194 18.2083L16.9629 15.1098V14.8904L20.0231 11.792L20.0916 11.8323L23.7157 13.9201C24.7499 14.5126 24.7499 15.4876 23.7157 16.0839L20.0916 18.1679L20.0194 18.2083Z" fill="url(#paint1_linear_102_242)"/>
<path d="M20.0916 18.1679L16.9629 15.0001L7.72961 24.3498C8.07313 24.7154 8.63332 24.7595 9.27035 24.3939L20.0916 18.1679Z" fill="url(#paint2_linear_102_242)"/>
<path d="M20.0916 11.8323L9.27035 5.60637C8.63332 5.2445 8.07313 5.28856 7.72961 5.65418L16.9629 15.0001L20.0916 11.8323Z" fill="url(#paint3_linear_102_242)"/>
<defs>
<linearGradient id="paint0_linear_102_242" x1="16.1479" y1="23.4678" x2="3.56209" y2="11.0374" gradientUnits="userSpaceOnUse">
<stop stop-color="#00A0FF"/>
<stop offset="0.0066" stop-color="#00A1FF"/>
<stop offset="0.2601" stop-color="#00BEFF"/>
<stop offset="0.5122" stop-color="#00D2FF"/>
<stop offset="0.7604" stop-color="#00DFFF"/>
<stop offset="1" stop-color="#00E3FF"/>
</linearGradient>
<linearGradient id="paint1_linear_102_242" x1="25.0624" y1="14.9991" x2="7.13882" y2="14.9991" gradientUnits="userSpaceOnUse">
<stop stop-color="#FFE000"/>
<stop offset="0.4087" stop-color="#FFBD00"/>
<stop offset="0.7754" stop-color="#FFA500"/>
<stop offset="1" stop-color="#FF9C00"/>
</linearGradient>
<linearGradient id="paint2_linear_102_242" x1="18.3904" y1="13.278" x2="1.32295" y2="-3.57867" gradientUnits="userSpaceOnUse">
<stop stop-color="#FF3A44"/>
<stop offset="1" stop-color="#C31162"/>
</linearGradient>
<linearGradient id="paint3_linear_102_242" x1="5.40539" y1="29.868" x2="13.0268" y2="22.3408" gradientUnits="userSpaceOnUse">
<stop stop-color="#32A071"/>
<stop offset="0.0685" stop-color="#2DA771"/>
<stop offset="0.4762" stop-color="#15CF74"/>
<stop offset="0.8009" stop-color="#06E775"/>
<stop offset="1" stop-color="#00F076"/>
</linearGradient>
</defs>
</svg>
