<svg width="20" height="20" viewBox="0 0 20 20" fill="none" xmlns="http://www.w3.org/2000/svg">
<path d="M6.36732 1.00886V2.01771H3.18372H0.00012207V3.0051V3.99248H5.07826H10.1525L10.0353 4.34451C9.63296 5.55084 8.94545 6.95894 8.2228 8.04507C7.85561 8.60316 7.32045 9.31579 7.27358 9.31579C7.23061 9.31579 6.62904 8.513 6.32045 8.04936C6.01185 7.58572 5.67201 6.99328 5.38685 6.4309L5.17591 6.01019H4.26966H3.36341L3.50013 6.34075C3.9806 7.50415 4.86732 9.01528 5.74232 10.1529L6.06654 10.5736L5.62123 11.0502C5.37513 11.312 4.33607 12.4411 3.30482 13.5616L1.43763 15.5921L2.07435 16.2962L2.71497 17.0002L4.98841 14.5017L7.26576 11.9989L8.68373 13.5573L10.0978 15.1113L10.4455 14.0939L10.7931 13.0807L9.64077 11.8186L8.48842 10.5608L8.78139 10.183C10.0626 8.54305 11.1564 6.42232 11.7384 4.46471C11.797 4.26294 11.8634 4.07405 11.8869 4.044C11.9142 4.00536 12.2306 3.99248 13.2267 3.99248H14.5314V3.0051V2.01771L11.3595 2.00912L8.18373 1.99624L8.17201 0.995977L8.1642 3.41982e-06H7.26576H6.36732V1.00886Z" fill="#BCBCBC"/>
<path d="M14.0586 8.10087C14.0352 8.16956 13.125 10.8398 12.0313 14.0381C10.9375 17.2364 10.0313 19.8894 10.0196 19.9324C9.99222 20.001 10.043 20.0053 10.9024 19.9967L11.8164 19.9839L12.3243 18.4942L12.8321 17.0002H15H17.168L17.6758 18.4942L18.1836 19.9839L19.0938 19.9967C19.5899 20.001 20.0001 20.001 20.0001 19.9967C20.0001 19.9882 19.0782 17.2879 17.9532 13.9951L15.9102 8.00642L15.004 7.99355L14.1016 7.98496L14.0586 8.10087ZM15.7344 12.8232C16.125 13.978 16.4454 14.931 16.4454 14.9482C16.4454 14.9697 15.7969 14.9825 15 14.9825C14.2071 14.9825 13.5547 14.9697 13.5547 14.9482C13.5547 14.8795 14.9766 10.7325 15 10.7325C15.0157 10.7325 15.3438 11.6726 15.7344 12.8232Z" fill="#BCBCBC"/>
</svg>
