<svg width="100" height="30" viewBox="0 0 100 30" fill="none" xmlns="http://www.w3.org/2000/svg">
<path d="M99.4444 26.5403C99.4444 28.139 98.1714 29.434 96.5968 29.434H3.40689C1.83304 29.434 0.555542 28.139 0.555542 26.5403V3.46362C0.555542 1.86564 1.83304 0.566101 3.40689 0.566101H96.5961C98.1714 0.566101 99.4437 1.86564 99.4437 3.46362L99.4444 26.5403Z" fill="black"/>
<path d="M96.2963 0.600937C98.0111 0.600937 99.4065 2.01375 99.4065 3.75V26.25C99.4065 27.9863 98.0111 29.3991 96.2963 29.3991H3.7037C1.98889 29.3991 0.593518 27.9863 0.593518 26.25V3.75C0.593518 2.01375 1.98889 0.600937 3.7037 0.600937H96.2963ZM96.2963 1.58548e-06H3.7037C1.66759 1.58548e-06 0 1.68844 0 3.75V26.25C0 28.3116 1.66759 30 3.7037 30H96.2963C98.3324 30 100 28.3116 100 26.25V3.75C100 1.68844 98.3324 1.58548e-06 96.2963 1.58548e-06Z" fill="#A6A6A6"/>
<path d="M22.3171 14.838C22.2957 12.4207 24.272 11.2447 24.3623 11.19C23.2431 9.53772 21.5082 9.31197 20.8986 9.29397C19.4416 9.13872 18.0282 10.1767 17.286 10.1767C16.529 10.1767 15.386 9.30897 14.1542 9.33447C12.569 9.35922 11.086 10.2885 10.2727 11.7315C8.59418 14.6737 9.84603 18.9975 11.4542 21.3757C12.2586 22.5405 13.1986 23.841 14.429 23.7952C15.6327 23.745 16.0823 23.0182 17.5349 23.0182C18.9742 23.0182 19.3964 23.7952 20.6512 23.766C21.9431 23.745 22.7564 22.596 23.5327 21.4207C24.4623 20.0857 24.8357 18.771 24.8505 18.7035C24.8201 18.693 22.3416 17.7352 22.3171 14.838Z" fill="white"/>
<path d="M19.9468 7.72947C20.5942 6.90972 21.0371 5.79447 20.9142 4.66272C19.9771 4.70472 18.8053 5.31897 18.1305 6.12072C17.5334 6.82722 17.0001 7.98522 17.1379 9.07422C18.1905 9.15372 19.2712 8.53647 19.9468 7.72947Z" fill="white"/>
<path d="M39.737 23.628H38.0548L37.1333 20.6963H33.9303L33.0526 23.628H31.4148L34.5881 13.647H36.5481L39.737 23.628ZM36.8555 19.4663L36.0222 16.86C35.9341 16.5938 35.7689 15.9668 35.5252 14.9798H35.4955C35.3985 15.4043 35.2422 16.0313 35.0274 16.86L34.2089 19.4663H36.8555Z" fill="white"/>
<path d="M47.8978 19.9411C47.8978 21.1651 47.5711 22.1326 46.9178 22.8428C46.3326 23.4751 45.6059 23.7908 44.7385 23.7908C43.8022 23.7908 43.1296 23.4503 42.72 22.7693H42.6904V26.5606H41.1111V18.8003C41.1111 18.0308 41.0911 17.2411 41.0526 16.4311H42.4415L42.5296 17.5718H42.5593C43.0859 16.7123 43.8852 16.2833 44.9578 16.2833C45.7963 16.2833 46.4963 16.6186 47.0563 17.2898C47.6178 17.9618 47.8978 18.8453 47.8978 19.9411ZM46.2889 19.9996C46.2889 19.2991 46.1334 18.7216 45.8208 18.2671C45.4793 17.7931 45.0208 17.5561 44.4459 17.5561C44.0563 17.5561 43.7022 17.6881 43.3859 17.9483C43.0689 18.2108 42.8615 18.5536 42.7645 18.9781C42.7156 19.1761 42.6911 19.3381 42.6911 19.4656V20.6656C42.6911 21.1891 42.8496 21.6308 43.1667 21.9916C43.4837 22.3523 43.8956 22.5323 44.4022 22.5323C44.9971 22.5323 45.46 22.2998 45.7911 21.8363C46.123 21.3721 46.2889 20.7601 46.2889 19.9996Z" fill="white"/>
<path d="M56.0733 19.9411C56.0733 21.1651 55.7467 22.1326 55.0926 22.8428C54.5081 23.4751 53.7815 23.7908 52.9141 23.7908C51.9778 23.7908 51.3052 23.4503 50.8963 22.7693H50.8667V26.5606H49.2874V18.8003C49.2874 18.0308 49.2674 17.2411 49.2289 16.4311H50.6178L50.7059 17.5718H50.7355C51.2615 16.7123 52.0607 16.2833 53.1341 16.2833C53.9718 16.2833 54.6718 16.6186 55.2333 17.2898C55.7926 17.9618 56.0733 18.8453 56.0733 19.9411ZM54.4644 19.9996C54.4644 19.2991 54.3081 18.7216 53.9955 18.2671C53.6541 17.7931 53.197 17.5561 52.6215 17.5561C52.2311 17.5561 51.8778 17.6881 51.5607 17.9483C51.2437 18.2108 51.037 18.5536 50.94 18.9781C50.8918 19.1761 50.8667 19.3381 50.8667 19.4656V20.6656C50.8667 21.1891 51.0252 21.6308 51.3407 21.9916C51.6578 22.3516 52.0696 22.5323 52.5778 22.5323C53.1726 22.5323 53.6356 22.2998 53.9667 21.8363C54.2985 21.3721 54.4644 20.7601 54.4644 19.9996Z" fill="white"/>
<path d="M65.2141 20.829C65.2141 21.678 64.923 22.3688 64.3385 22.902C63.6963 23.4848 62.8022 23.7758 61.6533 23.7758C60.5926 23.7758 59.7422 23.5688 59.0985 23.154L59.4644 21.8213C60.1578 22.2458 60.9185 22.4588 61.7474 22.4588C62.3422 22.4588 62.8052 22.3223 63.1378 22.0508C63.4689 21.7793 63.6341 21.4148 63.6341 20.9603C63.6341 20.5553 63.4978 20.214 63.2244 19.9373C62.9526 19.6605 62.4985 19.4033 61.8644 19.1655C60.1385 18.5138 59.2763 17.559 59.2763 16.3035C59.2763 15.483 59.5785 14.8103 60.1837 14.2868C60.7867 13.7625 61.5911 13.5008 62.597 13.5008C63.4941 13.5008 64.2393 13.659 64.8341 13.9748L64.4392 15.2783C63.8837 14.9723 63.2555 14.8193 62.5526 14.8193C61.997 14.8193 61.563 14.958 61.2518 15.234C60.9889 15.4808 60.857 15.7815 60.857 16.1378C60.857 16.5323 61.0074 16.8585 61.3096 17.115C61.5726 17.352 62.0504 17.6085 62.7437 17.8853C63.5918 18.231 64.2148 18.6353 64.6156 19.0988C65.0148 19.5608 65.2141 20.139 65.2141 20.829Z" fill="white"/>
<path d="M70.4356 17.6311H68.6948V21.1253C68.6948 22.0141 69.0015 22.4581 69.6163 22.4581C69.8985 22.4581 70.1326 22.4333 70.3178 22.3838L70.3615 23.5981C70.0504 23.7158 69.6408 23.7751 69.1334 23.7751C68.5097 23.7751 68.0222 23.5823 67.6704 23.1976C67.32 22.8121 67.1437 22.1656 67.1437 21.2573V17.6296H66.1067V16.4296H67.1437V15.1118L68.6948 14.6378V16.4296H70.4356V17.6311Z" fill="white"/>
<path d="M78.2896 19.9703C78.2896 21.0766 77.977 21.9848 77.3533 22.6951C76.6992 23.4263 75.8311 23.7908 74.7489 23.7908C73.7059 23.7908 72.8755 23.4406 72.2563 22.7401C71.637 22.0396 71.3274 21.1553 71.3274 20.0896C71.3274 18.9743 71.6459 18.0608 72.2852 17.3506C72.9229 16.6396 73.7837 16.2841 74.8659 16.2841C75.9089 16.2841 76.7481 16.6343 77.3815 17.3356C77.9874 18.0158 78.2896 18.8941 78.2896 19.9703ZM76.6511 20.0221C76.6511 19.3583 76.5111 18.7891 76.2274 18.3143C75.8963 17.7398 75.4229 17.4533 74.8096 17.4533C74.1748 17.4533 73.6926 17.7406 73.3615 18.3143C73.0778 18.7898 72.9378 19.3681 72.9378 20.0521C72.9378 20.7158 73.0778 21.2851 73.3615 21.7591C73.7029 22.3336 74.18 22.6201 74.7955 22.6201C75.3985 22.6201 75.8718 22.3276 76.2133 21.7441C76.5044 21.2603 76.6511 20.6851 76.6511 20.0221Z" fill="white"/>
<path d="M83.4229 17.8373C83.2666 17.8081 83.0999 17.7931 82.9251 17.7931C82.3695 17.7931 81.9399 18.0053 81.6377 18.4306C81.3747 18.8056 81.2428 19.2796 81.2428 19.8518V23.6281H79.6643L79.6791 18.6976C79.6791 17.8681 79.6591 17.1128 79.6199 16.4318H80.9954L81.0532 17.8088H81.0969C81.2636 17.3356 81.5265 16.9546 81.8865 16.6688C82.2384 16.4116 82.6184 16.2833 83.028 16.2833C83.174 16.2833 83.3058 16.2938 83.4229 16.3126V17.8373Z" fill="white"/>
<path d="M90.486 19.6891C90.486 19.9756 90.4675 20.2171 90.4282 20.4143H85.6904C85.7089 21.1253 85.9378 21.6691 86.3778 22.0441C86.7771 22.3793 87.2934 22.5473 87.9275 22.5473C88.6289 22.5473 89.2689 22.4341 89.8445 22.2068L90.0919 23.3168C89.4193 23.6138 88.6252 23.7616 87.7089 23.7616C86.6067 23.7616 85.7415 23.4331 85.1119 22.7768C84.4838 22.1206 84.1689 21.2393 84.1689 20.1338C84.1689 19.0486 84.4615 18.1448 85.0475 17.4241C85.6608 16.6546 86.4897 16.2698 87.5326 16.2698C88.5571 16.2698 89.3326 16.6546 89.8593 17.4241C90.2763 18.0353 90.486 18.7913 90.486 19.6891ZM88.9801 19.2743C88.9904 18.8003 88.8875 18.3908 88.6734 18.0451C88.4001 17.6003 87.9801 17.3783 87.4149 17.3783C86.8986 17.3783 86.4786 17.5951 86.1578 18.0301C85.8949 18.3758 85.7386 18.7906 85.6904 19.2736H88.9801V19.2743Z" fill="white"/>
<path d="M36.3333 7.50659C36.3333 8.38934 36.0718 9.05384 35.5496 9.50009C35.0659 9.91184 34.3785 10.1181 33.4881 10.1181C33.0466 10.1181 32.6688 10.0986 32.3525 10.0596V5.23634C32.7651 5.16884 33.2096 5.13434 33.6896 5.13434C34.5377 5.13434 35.177 5.32109 35.6081 5.69459C36.0911 6.11684 36.3333 6.72059 36.3333 7.50659ZM35.5148 7.52834C35.5148 6.95609 35.3651 6.51734 35.0659 6.21134C34.7666 5.90609 34.3296 5.75309 33.754 5.75309C33.5096 5.75309 33.3014 5.76959 33.1288 5.80409V9.47084C33.2244 9.48584 33.3992 9.49259 33.6533 9.49259C34.2474 9.49259 34.7059 9.32534 35.0288 8.99084C35.3518 8.65634 35.5148 8.16884 35.5148 7.52834Z" fill="white"/>
<path d="M40.6733 8.2776C40.6733 8.82135 40.52 9.26685 40.2133 9.61635C39.8918 9.9756 39.4659 10.1549 38.934 10.1549C38.4214 10.1549 38.0133 9.9831 37.7089 9.6381C37.4051 9.29385 37.2533 8.8596 37.2533 8.3361C37.2533 7.7886 37.4096 7.33935 37.7237 6.9906C38.0377 6.64185 38.46 6.4671 38.9918 6.4671C39.5044 6.4671 39.9163 6.63885 40.2281 6.9831C40.5244 7.3176 40.6733 7.7496 40.6733 8.2776ZM39.8681 8.3031C39.8681 7.97685 39.7985 7.6971 39.66 7.46385C39.497 7.18185 39.2652 7.04085 38.9637 7.04085C38.6518 7.04085 38.4148 7.18185 38.2518 7.46385C38.1126 7.6971 38.0437 7.98135 38.0437 8.31735C38.0437 8.6436 38.1133 8.92335 38.2518 9.1566C38.42 9.4386 38.654 9.5796 38.9563 9.5796C39.2526 9.5796 39.4851 9.43635 39.6526 9.1491C39.7963 8.91135 39.8681 8.62935 39.8681 8.3031Z" fill="white"/>
<path d="M46.4926 6.53918L45.4 10.0747H44.6889L44.2363 8.53943C44.1215 8.15618 44.0282 7.77518 43.9556 7.39718H43.9415C43.8741 7.78568 43.7808 8.16593 43.6608 8.53943L43.18 10.0747H42.4608L41.4333 6.53918H42.2311L42.6259 8.21993C42.7215 8.61743 42.8 8.99618 42.863 9.35468H42.8771C42.9348 9.05918 43.0304 8.68269 43.1652 8.22743L43.6608 6.53993H44.2933L44.7682 8.19143C44.883 8.59418 44.9763 8.98193 45.0482 9.35543H45.0696C45.1222 8.99168 45.2015 8.60393 45.3067 8.19143L45.7304 6.53993H46.4926V6.53918Z" fill="white"/>
<path d="M50.517 10.0746H49.7407V8.04959C49.7407 7.42559 49.5067 7.11359 49.037 7.11359C48.8067 7.11359 48.6207 7.19909 48.4763 7.37084C48.3333 7.54259 48.2607 7.74509 48.2607 7.97684V10.0738H47.4844V7.54934C47.4844 7.23884 47.4748 6.90209 47.4563 6.53759H48.1385L48.1748 7.09034H48.1963C48.2867 6.91859 48.4215 6.77684 48.5985 6.66359C48.8089 6.53159 49.0444 6.46484 49.3022 6.46484C49.6281 6.46484 49.8993 6.57134 50.1148 6.78509C50.383 7.04684 50.517 7.43759 50.517 7.95659V10.0746Z" fill="white"/>
<path d="M52.6578 10.0747H51.8822V4.91693H52.6578V10.0747Z" fill="white"/>
<path d="M57.2281 8.2776C57.2281 8.82135 57.0748 9.26685 56.7681 9.61635C56.4466 9.9756 56.02 10.1549 55.4888 10.1549C54.9755 10.1549 54.5674 9.9831 54.2637 9.6381C53.96 9.29385 53.8081 8.8596 53.8081 8.3361C53.8081 7.7886 53.9644 7.33935 54.2785 6.9906C54.5926 6.64185 55.0148 6.4671 55.5459 6.4671C56.0592 6.4671 56.4703 6.63885 56.7829 6.9831C57.0792 7.3176 57.2281 7.7496 57.2281 8.2776ZM56.4222 8.3031C56.4222 7.97685 56.3526 7.6971 56.214 7.46385C56.0518 7.18185 55.8192 7.04085 55.5185 7.04085C55.2059 7.04085 54.9688 7.18185 54.8066 7.46385C54.6674 7.6971 54.5985 7.98135 54.5985 8.31735C54.5985 8.6436 54.6681 8.92335 54.8066 9.1566C54.9748 9.4386 55.2088 9.5796 55.5111 9.5796C55.8074 9.5796 56.0392 9.43635 56.2066 9.1491C56.3511 8.91135 56.4222 8.62935 56.4222 8.3031Z" fill="white"/>
<path d="M60.9851 10.0746H60.288L60.2303 9.66735H60.2088C59.9703 9.9921 59.6303 10.1549 59.1888 10.1549C58.8591 10.1549 58.5925 10.0476 58.3917 9.8346C58.2095 9.6411 58.1184 9.40035 58.1184 9.1146C58.1184 8.6826 58.2962 8.35335 58.654 8.12535C59.011 7.89735 59.5132 7.7856 60.1599 7.79085V7.72485C60.1599 7.2591 59.9184 7.0266 59.4347 7.0266C59.0903 7.0266 58.7866 7.11435 58.5243 7.28835L58.3666 6.77235C58.691 6.5691 59.0917 6.4671 59.5643 6.4671C60.4769 6.4671 60.9347 6.9546 60.9347 7.9296V9.2316C60.9347 9.58485 60.9517 9.8661 60.9851 10.0746ZM60.1791 8.8596V8.31435C59.3228 8.29935 58.8947 8.5371 58.8947 9.02685C58.8947 9.21135 58.9436 9.34935 59.0436 9.4416C59.1436 9.53385 59.271 9.5796 59.4229 9.5796C59.5932 9.5796 59.7525 9.52485 59.8977 9.4161C60.0436 9.3066 60.1332 9.16785 60.1666 8.9976C60.1747 8.95935 60.1791 8.91285 60.1791 8.8596Z" fill="white"/>
<path d="M65.3963 10.0747H64.7074L64.6711 9.50693H64.6496C64.4296 9.93893 64.0548 10.1549 63.5282 10.1549C63.1074 10.1549 62.7571 9.98768 62.4793 9.65318C62.2015 9.31868 62.063 8.88443 62.063 8.35118C62.063 7.77893 62.2134 7.31543 62.5156 6.96143C62.8082 6.63143 63.1667 6.46643 63.5934 6.46643C64.0622 6.46643 64.3904 6.62618 64.5771 6.94643H64.5919V4.91693H65.3689V9.12218C65.3689 9.46643 65.3778 9.78368 65.3963 10.0747ZM64.5919 8.58368V7.99418C64.5919 7.89218 64.5845 7.80968 64.5704 7.74668C64.5267 7.55768 64.4326 7.39868 64.2896 7.27043C64.1452 7.14218 63.9711 7.07768 63.7704 7.07768C63.4808 7.07768 63.2541 7.19393 63.0874 7.42718C62.9222 7.66043 62.8385 7.95818 62.8385 8.32193C62.8385 8.67143 62.9178 8.95493 63.0771 9.17318C63.2452 9.40568 63.4719 9.52193 63.7556 9.52193C64.0104 9.52193 64.2141 9.42518 64.3689 9.23093C64.5185 9.05168 64.5919 8.83568 64.5919 8.58368Z" fill="white"/>
<path d="M72.0355 8.2776C72.0355 8.82135 71.8821 9.26685 71.5755 9.61635C71.254 9.9756 70.8288 10.1549 70.2962 10.1549C69.7844 10.1549 69.3762 9.9831 69.071 9.6381C68.7673 9.29385 68.6155 8.8596 68.6155 8.3361C68.6155 7.7886 68.7718 7.33935 69.0858 6.9906C69.3999 6.64185 69.8221 6.4671 70.3547 6.4671C70.8666 6.4671 71.2792 6.63885 71.5903 6.9831C71.8866 7.3176 72.0355 7.7496 72.0355 8.2776ZM71.231 8.3031C71.231 7.97685 71.1614 7.6971 71.0229 7.46385C70.8592 7.18185 70.6281 7.04085 70.3259 7.04085C70.0147 7.04085 69.7777 7.18185 69.614 7.46385C69.4747 7.6971 69.4058 7.98135 69.4058 8.31735C69.4058 8.6436 69.4755 8.92335 69.614 9.1566C69.7821 9.4386 70.0162 9.5796 70.3184 9.5796C70.6147 9.5796 70.8481 9.43635 71.0155 9.1491C71.1584 8.91135 71.231 8.62935 71.231 8.3031Z" fill="white"/>
<path d="M76.2097 10.0746H75.4341V8.04959C75.4341 7.42559 75.2 7.11359 74.7297 7.11359C74.4993 7.11359 74.3134 7.19909 74.1697 7.37084C74.026 7.54259 73.9541 7.74509 73.9541 7.97684V10.0738H73.1771V7.54934C73.1771 7.23884 73.1682 6.90209 73.1497 6.53759H73.8311L73.8674 7.09034H73.8889C73.98 6.91859 74.1148 6.77684 74.2911 6.66359C74.5022 6.53159 74.7371 6.46484 74.9956 6.46484C75.3208 6.46484 75.5919 6.57134 75.8074 6.78509C76.0763 7.04684 76.2097 7.43759 76.2097 7.95659V10.0746Z" fill="white"/>
<path d="M81.434 7.12788H80.5792V8.84538C80.5792 9.28188 80.7311 9.50013 81.0318 9.50013C81.1711 9.50013 81.2866 9.48813 81.3777 9.46338L81.3977 10.0596C81.2444 10.1181 81.0429 10.1474 80.7948 10.1474C80.4881 10.1474 80.2496 10.0529 80.077 9.86388C79.9037 9.67488 79.8177 9.35688 79.8177 8.91063V7.12788H79.3074V6.53913H79.8177V5.89113L80.5785 5.65863V6.53838H81.4333V7.12788H81.434Z" fill="white"/>
<path d="M85.5437 10.0747H84.7667V8.06468C84.7667 7.43093 84.5326 7.11368 84.0637 7.11368C83.7037 7.11368 83.4578 7.29743 83.323 7.66493C83.3 7.74218 83.2867 7.83668 83.2867 7.94768V10.0739H82.5111V4.91693H83.2867V7.04768H83.3015C83.5459 6.65993 83.8963 6.46643 84.3504 6.46643C84.6719 6.46643 84.9378 6.57293 85.1489 6.78668C85.4119 7.05293 85.5437 7.44893 85.5437 7.97243V10.0747Z" fill="white"/>
<path d="M89.7829 8.13958C89.7829 8.28058 89.7725 8.39908 89.754 8.49583H87.4259C87.4362 8.84533 87.5474 9.11158 87.7629 9.29608C87.96 9.46108 88.214 9.54358 88.5251 9.54358C88.8696 9.54358 89.1836 9.48808 89.4666 9.37633L89.5881 9.92233C89.257 10.0678 88.8674 10.1406 88.4162 10.1406C87.8755 10.1406 87.4496 9.97933 87.1414 9.65683C86.8318 9.33433 86.6785 8.90158 86.6785 8.35858C86.6785 7.82533 86.8214 7.38133 87.1096 7.02733C87.4103 6.64933 87.817 6.46033 88.3303 6.46033C88.8325 6.46033 89.214 6.64933 89.4718 7.02733C89.6799 7.32733 89.7829 7.69858 89.7829 8.13958ZM89.0422 7.93633C89.0481 7.70308 88.997 7.50208 88.8918 7.33258C88.757 7.11433 88.5518 7.00483 88.274 7.00483C88.0207 7.00483 87.814 7.11133 87.6562 7.32508C87.5274 7.49533 87.4511 7.69858 87.4259 7.93633H89.0422Z" fill="white"/>
</svg>
