<svg width="50" height="50" viewBox="0 0 50 50" fill="none" xmlns="http://www.w3.org/2000/svg">
<path d="M25 4.16675C13.4937 4.16675 4.16663 13.4938 4.16663 25.0001C4.16663 35.4459 11.8531 44.0949 21.8791 45.6011C22.8968 45.7542 23.9395 42.7084 25 42.7084C25.9573 42.7084 26.9 45.7688 27.8239 45.6438C37.9948 44.2657 45.8333 35.549 45.8333 25.0001C45.8333 13.4938 36.5062 4.16675 25 4.16675Z" fill="url(#paint0_linear_63_198)"/>
<path opacity="0.05" d="M28.8615 22.0511C28.8615 20.5677 29.1792 18.8 30.6917 18.8H35.1531L35.1521 12.949L35.1 12.0615L34.2187 11.9427C33.5854 11.8573 32.2677 11.6792 29.8375 11.6792C24.0365 11.6792 20.8417 15.1323 20.8417 21.4021V24.0042H15.6875V31.5646H20.8417V45.4167C22.1854 45.6886 23.576 45.8334 25 45.8334C26.3208 45.8334 27.6083 45.6969 28.8615 45.4615V31.5636H34.1042L35.2729 24.0032H28.8615V22.0511Z" fill="black"/>
<path opacity="0.05" d="M28.3407 22.051C28.3407 20.6416 28.6459 18.2791 30.6917 18.2791H34.6323V12.9791L34.6052 12.5208L34.1542 12.4593C33.5323 12.375 32.2396 12.2 29.8386 12.2C24.2938 12.2 21.3636 15.3822 21.3636 21.402V24.525H16.2084V31.0437H21.3625V45.4958C22.5459 45.7041 23.7563 45.8333 25 45.8333C26.1396 45.8333 27.25 45.7166 28.3407 45.5406V31.0427H33.6573L34.6646 24.5239H28.3396V22.051H28.3407Z" fill="black"/>
<path d="M27.8198 30.522H33.2114L34.0583 25.0449H27.8198V22.0512C27.8198 19.7762 28.5635 17.7584 30.6916 17.7584H34.1114V12.9793C33.5104 12.898 32.2395 12.7209 29.8385 12.7209C24.8239 12.7209 21.8843 15.3689 21.8843 21.4022V25.0459H16.7291V30.523H21.8833V45.6012C22.9041 45.7532 23.9385 45.8334 25 45.8334C25.9593 45.8334 26.8958 45.7689 27.8198 45.6439V30.522Z" fill="white"/>
<defs>
<linearGradient id="paint0_linear_63_198" x1="10.4093" y1="10.4095" x2="42.3073" y2="42.3074" gradientUnits="userSpaceOnUse">
<stop stop-color="#2AA4F4"/>
<stop offset="1" stop-color="#007AD9"/>
</linearGradient>
</defs>
</svg>
