<svg width="50" height="50" viewBox="0 0 50 50" fill="none" xmlns="http://www.w3.org/2000/svg">
<path d="M43.4063 14.0417C42.9896 14.3125 42.3959 14.5625 42.1459 14.8437C42.0521 14.9375 42 15.0417 42.0209 15.1458V16.2187L41.7084 17.2708L41.3959 18.3125L41.0521 19.4583L40.3438 21.8021L39.6563 24.1146L39.1355 25.8542C39.1355 26.125 39.125 26.3958 39.1042 26.6562C39.0313 27.6562 38.823 28.6146 38.4896 29.5104C38.2917 30.0625 38.0521 30.5937 37.7605 31.0937C37.6563 31.2917 37.5313 31.4896 37.4063 31.6771C36.9896 32.3333 36.4896 32.9375 35.9375 33.4688C35.5105 33.8958 35.0417 34.2917 34.5313 34.625C34.5313 34.625 34.5313 34.625 34.5209 34.625C34.4375 34.6979 34.3438 34.7604 34.2396 34.8125C33.9167 35.0312 33.573 35.2188 33.2188 35.3854C32.9792 35.5104 32.7396 35.6146 32.4896 35.7083C32.4375 35.7396 32.375 35.7604 32.323 35.7812C31.7292 36.0625 31.0417 36.25 30.3542 36.3437C30.3125 36.3542 30.2813 36.3542 30.2396 36.3646C29.823 36.4375 29.4167 36.5 29 36.5312C28.8125 36.5521 28.6146 36.5625 28.4271 36.5625L27.6875 36.5208L24.125 36.3333C24.125 36.3229 24.1146 36.3333 24.1146 36.3333L22.323 36.2396C22.1875 36.2396 22.0417 36.2396 21.9063 36.2292C21.3438 36.2083 20.8021 36.1458 20.2605 36.0312C20.25 36.0312 20.25 36.0312 20.25 36.0312C19.2605 35.8437 18.3125 35.5104 17.4271 35.0625C16.9375 34.8125 16.4584 34.5312 16.0105 34.2083C15.823 34.0729 15.6459 33.9271 15.4688 33.7708C14.9688 33.3542 14.5209 32.9062 14.1042 32.4479C14.0417 32.3854 13.9896 32.3229 13.9375 32.2604C13.875 32.1979 13.8125 32.125 13.7605 32.0625C13.3646 31.5625 13.0313 31.0521 12.7605 30.5104C12.5105 30.0313 12.3125 29.5208 12.1563 28.9583C12.0938 28.7604 12.0417 28.5729 12 28.3646C11.9896 28.3542 11.9792 28.3333 11.9792 28.3125C11.875 27.8854 11.7813 27.4375 11.7292 26.9896C11.6667 26.6458 11.6355 26.3021 11.6355 25.9479C11.6146 25.8125 11.6146 25.6667 11.6146 25.5312L13.6042 22.4583L15.5521 19.4583L16.4375 18.0938L17.2396 16.8646L17.5105 16.4375V15.3646C17.5313 15.125 17.5417 14.875 17.5313 14.6458C17.5209 13.9167 17.375 13.2083 17.1355 12.5312C16.9063 11.8125 16.5834 11.1354 16.25 10.5104C15.8542 9.79167 15.4375 9.14583 15.0938 8.5625C14.5834 7.70833 14.2292 7.01042 14.323 6.52083C15.073 6.34375 15.8646 6.25 16.6667 6.25H33.3334C37.6875 6.25 41.4375 8.95833 42.9896 12.7708C43.1563 13.1771 43.3021 13.6042 43.4063 14.0417Z" fill="#304FFE"/>
<path d="M43.75 16.6667V16.9479L42.3125 17.7812L41.3958 18.3125L40.3854 18.8958L38.3645 20.0729L36.3854 21.2188L34.3645 22.3854L33.5625 22.8542C33.5625 23.3542 33.4375 23.8125 33.2083 24.2292C32.8854 24.8333 32.3437 25.3333 31.6562 25.7604C30.9583 26.1875 30.1041 26.5312 29.1458 26.7812C29.1458 26.7812 29.1458 26.7708 29.1354 26.7812C25.427 27.7396 20.3645 27.3021 17.9062 25.4688C17.2187 24.9583 16.7395 24.3333 16.5312 23.6146C16.4687 23.375 16.4375 23.1146 16.4375 22.8542V15.3646C16.4479 15.2083 16.3437 15.0521 16.1562 14.8958C15.5937 14.4479 14.2708 14.0208 12.7916 13.5937C11.6354 13.2708 10.3958 12.9479 9.35413 12.6354C8.53121 12.3854 7.83329 12.1354 7.41663 11.8958C7.60413 11.5312 7.82288 11.1667 8.05204 10.8229C9.51038 8.6875 11.7395 7.11458 14.3229 6.52083C15.0729 6.34375 15.8645 6.25 16.6666 6.25H27.9166C33.5104 7.22917 38.6666 9.51042 42.9895 12.7708C43.1562 13.1771 43.302 13.6042 43.4062 14.0417C43.5937 14.7292 43.7083 15.4375 43.7395 16.1771C43.75 16.3333 43.75 16.5 43.75 16.6667Z" fill="#4928F4"/>
<path d="M43.75 16.6667V21.2604L43.5209 21.9688L42.7396 24.3958L41.9271 26.8958L41.5 28.2292L41.1042 29.4688L40.7188 30.6458L40.3438 31.8125L40.1459 32.4271L39.8855 33.2396C39.8855 34.0312 39.8646 34.7292 39.8125 35.3229C39.8021 35.3854 39.7917 35.4479 39.7917 35.5104C39.7292 36.0625 39.6459 36.5313 39.5105 36.9271C39.5 36.9896 39.4792 37.0521 39.4584 37.1042C39.1875 37.8542 38.7813 38.3333 38.1771 38.6458C38.0313 38.7292 37.8646 38.7917 37.6875 38.8542C37.1355 39.0417 36.4375 39.1354 35.5834 39.1875C34.9584 39.2292 34.2396 39.2396 33.4271 39.2396H32.7084L31.4688 39.1875L31.25 39.1771L28.9896 39.0833L26.698 38.9896L19.1459 38.6771L17.1875 38.5937H16.9167C16.1042 38.5833 15.4063 38.5312 14.8021 38.4479C13.9271 38.3125 13.25 38.0833 12.7396 37.7396C12.0105 37.2708 11.5834 36.5833 11.3334 35.625C11.2709 35.3958 11.2188 35.1562 11.1875 34.8958C11.0834 34.2917 11.0313 33.5937 11 32.8125C11 32.6562 11 32.5 10.9896 32.3333C10.9792 32.3229 10.9896 32.3229 10.9896 32.3229V31.7188C10.9792 31.4167 10.9792 31.1042 10.9792 30.7812L11.0313 29.1042L11.0625 27.9063L11.1042 26.5104V26.3125L11.1771 23.75L11.25 21.1875L11.323 18.7813L11.3855 16.4167L11.4063 15.7917C11.4063 15.4687 10.3125 15.2813 9.09379 15.125C8.12504 15 7.06254 14.8854 6.42712 14.7396C6.47921 14.5 6.53129 14.2604 6.59379 14.0313C6.78129 13.2813 7.06254 12.5729 7.41671 11.8958C7.60421 11.5313 7.82296 11.1667 8.05212 10.8229C10.3021 9.83333 12.6459 9.0625 15.0938 8.5625C17.2396 8.11458 19.4792 7.875 21.7917 7.875C29.4584 7.875 36.5417 10.4688 42.1459 14.8437C42.6875 15.2604 43.2188 15.7083 43.7396 16.1771C43.75 16.3333 43.75 16.5 43.75 16.6667Z" fill="#6200EA"/>
<path d="M43.75 19.1355V23.8647L43.1771 24.9688L42.0833 27.1042L41.5 28.2292L40.9688 29.2605L40.7396 29.7084C40.7396 30.0313 40.7396 30.3438 40.7187 30.6459C40.7187 31.0938 40.6979 31.5209 40.6667 31.9167C40.625 32.3855 40.5625 32.8126 40.5 33.2084C40.3437 34.0313 40.125 34.7397 39.8125 35.323C39.7708 35.3959 39.7292 35.4688 39.6875 35.5313C39.5729 35.7188 39.4375 35.8959 39.2917 36.0626C39.1042 36.2917 38.8958 36.4897 38.6562 36.6563C38.3021 36.9272 37.8854 37.1459 37.4062 37.3126C36.8125 37.5313 36.125 37.6772 35.3125 37.7605C34.7813 37.8126 34.1979 37.8438 33.5625 37.8438L33.125 37.8647L30.9583 37.9897H30.9479L28.6458 38.1251L26.3021 38.2605L23.0729 38.448L19.1458 38.6772L18.5729 38.7084C18.0417 38.7084 17.5417 38.6772 17.0625 38.6147C17.0104 38.6042 16.9687 38.5938 16.9167 38.5938C16.2083 38.4792 15.5625 38.2917 14.9792 38.0313C14.2708 37.7188 13.6562 37.3022 13.1354 36.8022C12.6771 36.3542 12.2812 35.8438 11.9583 35.2709C11.8854 35.1355 11.8125 35.0105 11.75 34.8647C11.4375 34.2501 11.1875 33.5626 11 32.8126C10.9688 32.6876 10.9375 32.5522 10.9167 32.4167C10.8542 32.1772 10.8021 31.9272 10.7708 31.6667C10.6562 31.0001 10.5938 30.2917 10.5625 29.5522V29.5417C10.5521 29.2397 10.5417 28.948 10.5417 28.6355L10.0312 27.4167L9.95833 27.2292L9.89583 27.073L9.11458 25.2084L8.98958 24.9063L8.23958 23.1042L7.40625 21.0938C7.40625 21.0938 7.40625 21.0938 7.39583 21.0938L6.55208 19.0626L6.25 18.323V16.6667C6.25 16.0105 6.3125 15.3647 6.42708 14.7397C6.47917 14.5001 6.53125 14.2605 6.59375 14.0313C7.47917 13.5209 8.40625 13.0522 9.35417 12.6355C11.5208 11.6667 13.8438 10.948 16.25 10.5105C18.0417 10.1876 19.9062 10.0105 21.7917 10.0105C29.4062 10.0105 36.3125 12.7709 41.7083 17.2709C41.9167 17.4376 42.1146 17.6042 42.3125 17.7813C42.8021 18.2084 43.2812 18.6563 43.75 19.1355Z" fill="#673AB7"/>
<path d="M43.75 22.2396V27.5938L43.1562 28.8333L42.0312 31.1771L42.0208 31.2083C42.0208 31.6563 42 32.0625 41.9687 32.4271C41.8646 33.625 41.5729 34.3854 41.0937 34.8542C40.75 35.2083 40.3229 35.4063 39.7917 35.5104C39.7604 35.5208 39.7187 35.5208 39.6875 35.5313C39.5208 35.5625 39.3437 35.5833 39.1562 35.5833C38.5104 35.6458 37.75 35.6042 36.875 35.5417C36.7813 35.5417 36.6771 35.5313 36.5729 35.5208C35.9375 35.4792 35.2604 35.4375 34.5104 35.4063C34.1042 35.3958 33.6771 35.3854 33.2396 35.3854H33.2187L32.1667 35.4688H32.1562L29.7917 35.6354L27.0937 35.8438L26.6979 35.875L23.5417 36.1042L21.9063 36.2292L20.2917 36.3438C20.0104 36.3438 19.7396 36.3438 19.4688 36.3333C19.4688 36.3333 19.4583 36.3229 19.4583 36.3333C18.2812 36.3125 17.2292 36.2396 16.2917 36.0625C15.4271 35.9167 14.6667 35.6875 14.0208 35.3438C13.3542 35.0208 12.8021 34.5625 12.3542 33.9792C11.9271 33.4063 11.6146 32.6875 11.4167 31.8229C11.4167 31.8125 11.4167 31.8125 11.4167 31.8125C11.2708 31.1146 11.1875 30.3021 11.1875 29.3854L11.0312 29.1042L10.1042 27.4479L9.96875 27.2188L9.89583 27.0729L8.92708 25.3542L8.44792 24.4896L7.84375 23.4167L6.80208 21.5521L6.25 20.5729V16.7396C7.16667 16.1354 8.11458 15.6042 9.09375 15.125C10.2812 14.5208 11.5104 14.0104 12.7917 13.5938C14.1875 13.1354 15.6458 12.7708 17.1354 12.5312C18.6458 12.2812 20.1979 12.1562 21.7917 12.1562C28.875 12.1562 35.375 14.6875 40.3854 18.8958C40.6146 19.0729 40.8333 19.2708 41.0521 19.4583C41.9271 20.2396 42.7604 21.0833 43.5208 21.9688C43.6042 22.0625 43.6875 22.1458 43.75 22.2396Z" fill="#8E24AA"/>
<path d="M43.75 25.7397V33.2709C43.5 33.1251 43.1562 32.948 42.7292 32.7605C42.5 32.6459 42.2396 32.5313 41.9687 32.4272C41.5729 32.2501 41.1458 32.0834 40.6667 31.9167C40.5625 31.8751 40.4583 31.8438 40.3437 31.8126C40.1562 31.7397 39.9583 31.6772 39.7604 31.6147C39.1458 31.4272 38.4687 31.2501 37.7604 31.0938C37.4896 31.0417 37.2083 30.9897 36.9271 30.948C36.0208 30.7917 35.0521 30.698 34.0417 30.6876C33.9583 30.6772 33.8646 30.6772 33.7812 30.6772L31.1042 30.698L27.4583 30.7188H27.4479L19.6458 30.7813C17.1667 30.7813 15.6458 31.3751 14.7292 31.6147C14.7292 31.6147 14.7187 31.6147 14.7187 31.6251C13.75 31.8751 13.4479 31.7188 13.3646 30.0209C13.3437 29.5522 13.3333 28.948 13.3333 28.2084L12.75 27.7605L11.7292 26.9897L11.1042 26.5105L10.9792 26.4167L9.25 25.1042L8.98958 24.9063L8.44792 24.4897L7.44792 23.7397L6.25 22.823V19.2813C6.35417 19.198 6.44792 19.1251 6.55208 19.0626C8.0625 18.0209 9.67708 17.1355 11.3854 16.4167C12.9063 15.7709 14.5104 15.2605 16.1562 14.8959C16.6042 14.8022 17.0625 14.7084 17.5312 14.6459C18.9167 14.4063 20.3437 14.2917 21.7917 14.2917C28.0521 14.2917 33.8021 16.4688 38.3646 20.073C39.0521 20.6147 39.7187 21.1876 40.3437 21.8022C41.1979 22.6147 42 23.4792 42.7396 24.3959C42.8854 24.5834 43.0312 24.7709 43.1771 24.9688C43.375 25.2188 43.5625 25.4792 43.75 25.7397Z" fill="#C2185B"/>
<path d="M43.75 29.9167V33.3333C43.75 34.0104 43.6875 34.6771 43.5625 35.3229C43.375 36.2813 43.0521 37.1979 42.6146 38.0521C42.3854 38.1042 42.125 38.1042 41.8333 38.0625C41.1771 37.9479 40.4063 37.6042 39.5729 37.1562C39.5313 37.1458 39.4896 37.125 39.4583 37.1042C39.1979 36.9687 38.9271 36.8229 38.6562 36.6562C38.1042 36.3542 37.5208 36.0208 36.9375 35.7083C36.8125 35.6458 36.6875 35.5833 36.5729 35.5208C35.9062 35.1771 35.2188 34.8646 34.5313 34.625C34.5313 34.625 34.5312 34.625 34.5208 34.625C34.375 34.5729 34.2187 34.5208 34.0625 34.4792C33.4687 34.3125 32.8646 34.2083 32.2812 34.2083L31.1354 33.875L26.0625 32.4063C26.0625 32.4063 26.0625 32.4063 26.0521 32.4063L22.9375 31.5H22.9271L21.5729 31.1042C17.6562 31.1042 15.25 32.7708 14.0833 32.1354C13.625 31.8958 13.3542 31.2917 13.2604 30.1042C13.2292 29.7708 13.2187 29.3958 13.2187 28.9583L12 28.3646L11.9479 28.3437H11.9375L11.0625 27.9063L10.1042 27.4479L10.0312 27.4167L9.85417 27.3229L7.8125 26.3333L6.25 25.5729V22C6.42708 21.8438 6.61458 21.6979 6.80208 21.5521C7 21.3958 7.19792 21.25 7.39583 21.0938C7.40625 21.0938 7.40625 21.0938 7.40625 21.0938C8.63542 20.2083 9.9375 19.4271 11.3229 18.7813C12.9375 18.0104 14.6562 17.4167 16.4375 17.0313C16.6979 16.9688 16.9687 16.9063 17.2396 16.8646C18.7187 16.5833 20.2396 16.4375 21.7917 16.4375C27.2812 16.4375 32.3229 18.2188 36.3854 21.2188C37.5625 22.0938 38.6562 23.0625 39.6562 24.1146C40.4792 24.9792 41.2396 25.9167 41.9271 26.8958C41.9792 26.9687 42.0313 27.0417 42.0833 27.1042C42.4688 27.6667 42.8229 28.2396 43.1562 28.8333C43.375 29.1875 43.5625 29.5521 43.75 29.9167Z" fill="#D81B60"/>
<path d="M43.5625 35.323C43.375 36.2813 43.0521 37.198 42.6146 38.0522C42.4167 38.4376 42.1979 38.8022 41.9583 39.1563C41.8125 39.3751 41.6562 39.5834 41.5 39.7813C41.125 39.6355 40.5729 39.4272 39.8958 39.198C39.8958 39.198 39.8958 39.198 39.8958 39.1876C39.3854 39.0105 38.8021 38.823 38.1771 38.6459C38 38.5938 37.8229 38.5417 37.6354 38.4897C36.8958 38.2917 36.125 38.1147 35.375 38.0105C34.75 37.9063 34.1354 37.8438 33.5625 37.8438L33.0833 37.7084H33.0729L30.5521 36.9792L29 36.5313L27.2708 36.0313H27.2604L26.6979 35.8751L19.8958 33.9167L17.9375 33.3542L16.4792 33.0105L14.1042 32.448L13.8125 32.3751C13.8125 32.3751 13.8125 32.3751 13.8021 32.3751L11.4167 31.823C11.4167 31.8126 11.4167 31.8126 11.4167 31.8126L10.9896 31.7188L10.7708 31.6667L9.03125 31.2605L8.83333 31.2084L7.35417 29.9897L6.25 29.0626V24.8126C6.63542 24.4376 7.03125 24.0834 7.44792 23.7397C7.57292 23.6251 7.70833 23.5209 7.84375 23.4167C7.96875 23.3126 8.10417 23.2084 8.23958 23.1042C9.1875 22.3855 10.1875 21.7397 11.25 21.1876C12.6042 20.4584 14.0417 19.8751 15.5521 19.4584C15.8437 19.3647 16.1354 19.2813 16.4375 19.2188C18.1458 18.7917 19.9375 18.573 21.7917 18.573C26.4479 18.573 30.7813 19.9792 34.3646 22.3855C36.1458 23.5834 37.75 25.0209 39.1042 26.6563C39.7917 27.4792 40.4167 28.3438 40.9688 29.2605C41.0208 29.3334 41.0625 29.3959 41.1042 29.4688C41.4375 30.0209 41.75 30.5938 42.0312 31.1772C42.2917 31.698 42.5208 32.2188 42.7292 32.7605C43.0625 33.5938 43.3333 34.448 43.5625 35.323Z" fill="#F50057"/>
<path d="M41.9583 39.1563C41.8125 39.375 41.6562 39.5833 41.5 39.7812C41.0417 40.3542 40.5417 40.875 39.9792 41.3333C39.4896 41.7396 38.9687 42.1042 38.4167 42.4167C38.2083 42.3646 38 42.3021 37.7812 42.2187C37.0937 41.9792 36.375 41.5833 35.7083 41.1667C34.7083 40.5313 33.8437 39.8438 33.4583 39.5313C33.3125 39.4063 33.2396 39.3438 33.2396 39.3438L31.4687 39.1875L31.25 39.1667L28.9583 38.9687L26.5833 38.7604L23.0729 38.4479L17.5104 37.9583L17.4896 37.9479L15.5312 37L13.5521 36.0417L11.9583 35.2708L11.6146 35.1042L11.1875 34.8958L9.70833 34.1771L7.73958 33.2292L7.125 32.9271L6.25 32.6563V28C6.73958 27.4167 7.26042 26.8646 7.8125 26.3333C8.16667 26 8.54167 25.6667 8.92708 25.3542C8.98958 25.3021 9.05208 25.25 9.11458 25.2083C9.15625 25.1563 9.20833 25.125 9.25 25.1042C9.86458 24.6042 10.5104 24.1562 11.1771 23.75C11.9479 23.2604 12.7604 22.8229 13.6042 22.4583C14.5104 22.0521 15.4583 21.7083 16.4375 21.4479C18.1354 20.9688 19.9375 20.7188 21.7917 20.7188C26.0417 20.7188 29.9687 22.0104 33.2083 24.2292C35.2812 25.6458 37.0729 27.4375 38.4896 29.5104C38.9583 30.1771 39.375 30.8854 39.7604 31.6146C39.8958 31.8854 40.0312 32.1562 40.1458 32.4271C40.2708 32.6875 40.3854 32.9479 40.5 33.2083C40.7187 33.75 40.9167 34.2917 41.0937 34.8542C41.4271 35.8958 41.6771 36.9583 41.8333 38.0625C41.8854 38.4271 41.9271 38.7917 41.9583 39.1563Z" fill="#FF1744"/>
<path d="M39.9896 41.0626C39.9896 41.1459 39.9896 41.2397 39.9792 41.3334C39.4896 41.7397 38.9687 42.1042 38.4167 42.4167C38.1875 42.5417 37.9583 42.6667 37.7187 42.7709C37.4792 42.8855 37.2396 42.9897 36.9896 43.0834C36.6354 42.8959 36.1563 42.6667 35.6458 42.448C34.9271 42.1251 34.1458 41.8334 33.5417 41.7397C33.3958 41.7084 33.2604 41.698 33.1354 41.698L31.4271 41.4792H31.4062L29.2812 41.198L27.1354 40.9167L26.1354 40.7917L18.2604 39.7709C17.75 39.7709 17.2083 39.7397 16.6458 39.6667C15.9583 39.6042 15.2396 39.5001 14.5208 39.3542C13.8125 39.2292 13.0937 39.0626 12.4062 38.8855C11.6875 38.7188 10.9792 38.5209 10.3229 38.3334C9.5625 38.1042 8.85417 37.8855 8.26042 37.6876C7.77083 37.5313 7.35417 37.3855 7.03125 37.2709C6.84375 36.823 6.6875 36.3542 6.57292 35.8751C6.35417 35.0626 6.25 34.2084 6.25 33.3334V31.5938C6.58333 31.0417 6.94792 30.5001 7.35417 29.9897C8.09375 29.0105 8.9375 28.1147 9.85417 27.323C9.88542 27.2813 9.92708 27.2501 9.95833 27.2292L9.96875 27.2188C10.2917 26.9272 10.625 26.6667 10.9792 26.4167C11.0208 26.3751 11.0625 26.3438 11.1042 26.3126C11.2708 26.1876 11.4479 26.0626 11.6354 25.948C13.125 24.9376 14.7708 24.1459 16.5312 23.6147C18.1979 23.1147 19.9583 22.8542 21.7917 22.8542C25.4271 22.8542 28.8229 23.9272 31.6562 25.7605C33.75 27.1042 35.5521 28.8751 36.9271 30.948C37.0937 31.1876 37.25 31.4272 37.4062 31.6772C38.125 32.8959 38.7187 34.2084 39.1562 35.5834C39.2083 35.7397 39.25 35.8959 39.2917 36.0626C39.375 36.3438 39.4479 36.6355 39.5104 36.9272C39.5312 37.0001 39.5521 37.073 39.5729 37.1563C39.7188 37.8126 39.8229 38.5001 39.8958 39.1876C39.8958 39.198 39.8958 39.198 39.8958 39.198C39.9583 39.8126 39.9896 40.4376 39.9896 41.0626Z" fill="#FF5722"/>
<path d="M37.8437 41.0625C37.8437 41.4271 37.8229 41.8229 37.7812 42.2187C37.7604 42.4062 37.7395 42.5938 37.7187 42.7708C37.4791 42.8854 37.2395 42.9896 36.9895 43.0833C36.5208 43.2604 36.0416 43.4062 35.552 43.5104C35.2187 43.5833 34.875 43.6458 34.5312 43.6771H34.5208C34.1979 43.4792 33.8229 43.2396 33.4375 42.9687C32.7395 42.4792 32.0104 41.9271 31.427 41.4792C31.4166 41.4687 31.4166 41.4687 31.4062 41.4583C30.7916 40.9896 30.3541 40.6354 30.3541 40.6354L29.25 40.6771L27.125 40.75L26.1354 40.7917L22.1562 40.9375L18.7916 41.0625C18.5729 41.0729 18.3125 41.0729 17.9895 41.0625H17.9791C17.5416 41.0521 17.0208 41.0208 16.4479 40.9688C15.7812 40.9167 15.052 40.8542 14.3125 40.7813C13.5937 40.6979 12.8645 40.6146 12.1666 40.5312C11.3958 40.4479 10.6666 40.3542 10.0416 40.2708C9.55204 40.2083 9.12496 40.1562 8.78121 40.1146C8.48954 39.7812 8.22913 39.4375 7.97913 39.0625C7.60413 38.5 7.28121 37.9062 7.03121 37.2708C6.84371 36.8229 6.68746 36.3542 6.57288 35.875C6.87496 34.9479 7.27079 34.0729 7.73954 33.2292C8.11454 32.5417 8.55204 31.8854 9.03121 31.2604C9.49996 30.6458 10.0104 30.0729 10.5625 29.5521V29.5417C10.7187 29.3854 10.875 29.2396 11.0312 29.1042C11.3229 28.8333 11.625 28.5833 11.9375 28.3437H11.9479C11.9583 28.3229 11.9687 28.3229 11.9791 28.3125C12.2291 28.1146 12.4895 27.9375 12.75 27.7604C14.2916 26.7083 16.0312 25.9271 17.9062 25.4688C19.1458 25.1667 20.4479 25 21.7916 25C24.4375 25 26.9375 25.6354 29.1354 26.7812H29.1458C31.0312 27.75 32.6979 29.0833 34.0416 30.6875C34.7812 31.5417 35.4166 32.4792 35.9375 33.4688C36.302 34.1354 36.6145 34.8333 36.875 35.5417C36.8958 35.6042 36.9166 35.6562 36.9375 35.7083C37.1145 36.2292 37.2708 36.7708 37.4062 37.3125C37.5 37.6979 37.5729 38.0938 37.6354 38.4896C37.6562 38.6146 37.677 38.7292 37.6875 38.8542C37.7916 39.5729 37.8437 40.3125 37.8437 41.0625Z" fill="#FF6F00"/>
<path d="M35.7083 41.0624V41.1666C35.7083 41.5208 35.677 41.9687 35.6458 42.4478C35.6145 42.802 35.5833 43.1666 35.552 43.5103C35.2187 43.5833 34.875 43.6458 34.5312 43.677H34.5208C34.125 43.7291 33.7395 43.7499 33.3333 43.7499H31.5104L31.1145 43.6353L29.0625 43.0103L26.9791 42.3853L22.1562 40.9374L20.0729 40.3124C20.0729 40.3124 19.2083 40.6562 17.9895 41.0624H17.9791C17.5104 41.2187 17 41.3853 16.4583 41.552C15.7812 41.7499 15.0625 41.9478 14.3541 42.1041C13.625 42.2708 12.9062 42.3958 12.2604 42.4478C12.0625 42.4687 11.8645 42.4791 11.6875 42.4791C11.1041 42.1562 10.5416 41.7708 10.0312 41.3437C9.58329 40.9687 9.16663 40.5624 8.78121 40.1145C8.48954 39.7812 8.22913 39.4374 7.97913 39.0624C8.05204 38.5937 8.13538 38.1353 8.26038 37.6874C8.57288 36.4478 9.06246 35.2603 9.70829 34.177C10.0625 33.5624 10.4583 32.9687 10.9166 32.4166C10.927 32.3853 10.9583 32.3541 10.9895 32.3333C10.9791 32.3228 10.9895 32.3228 10.9895 32.3228C11.125 32.1458 11.2708 31.9791 11.4166 31.8228C11.4166 31.8124 11.4166 31.8124 11.4166 31.8124C11.8437 31.3541 12.2812 30.9166 12.7604 30.5103C12.927 30.3749 13.0833 30.2395 13.2604 30.1041C13.2916 30.0728 13.3229 30.052 13.3645 30.0208C15.7083 28.2291 18.6354 27.1458 21.7916 27.1458C25.375 27.1458 28.6354 28.4895 31.1041 30.6978C32.2916 31.7708 33.302 33.052 34.0625 34.4791C34.125 34.5833 34.1875 34.6978 34.2395 34.8124C34.3333 34.9999 34.427 35.1978 34.5104 35.4062C34.8541 36.1562 35.125 36.9478 35.3125 37.7603C35.3333 37.8437 35.3541 37.927 35.375 38.0103C35.4583 38.3958 35.5312 38.7916 35.5833 39.1874C35.6666 39.802 35.7083 40.427 35.7083 41.0624Z" fill="#FF9800"/>
<path d="M33.5625 41.0625C33.5625 41.2708 33.552 41.5 33.5416 41.7396C33.5208 42.125 33.4895 42.5417 33.4375 42.9687C33.4166 43.2292 33.375 43.4896 33.3333 43.75H27.625L26.5208 43.5729L22.2083 42.8854L21.5937 42.7917L20.1875 42.5625C19.5729 42.5625 18.2395 42.8333 16.8333 43.0937C16.0937 43.2292 15.3437 43.375 14.6666 43.4687C14.5833 43.4792 14.5 43.4896 14.427 43.5H14.4166C13.6875 43.3437 12.9791 43.1042 12.3125 42.7917C12.1041 42.6979 11.8958 42.5937 11.6875 42.4792C11.1041 42.1562 10.5416 41.7708 10.0312 41.3437C10.0208 41.2187 10.0104 41.1146 10.0104 41.0625C10.0104 40.7917 10.0208 40.5312 10.0416 40.2708C10.0833 39.6042 10.177 38.9583 10.3229 38.3333C10.552 37.3854 10.8854 36.4687 11.3333 35.625C11.4166 35.4479 11.5104 35.2708 11.6145 35.1042C11.6562 35.0208 11.7083 34.9479 11.75 34.8646C11.9375 34.5625 12.1458 34.2708 12.3541 33.9792C12.7916 33.4062 13.2812 32.8646 13.802 32.375C13.8125 32.375 13.8125 32.375 13.8125 32.375C13.8541 32.3333 13.8958 32.2917 13.9375 32.2604C13.9895 32.2187 14.0312 32.1667 14.0833 32.1354C14.2916 31.9479 14.5 31.7812 14.7187 31.625C14.7187 31.6146 14.7291 31.6146 14.7291 31.6146C16.6979 30.1458 19.1354 29.2812 21.7916 29.2812C23.8541 29.2812 25.7708 29.8021 27.4479 30.7187H27.4583C28.8958 31.5104 30.1458 32.5833 31.1354 33.875C31.5208 34.375 31.8645 34.9062 32.1562 35.4687H32.1666C32.2187 35.5729 32.2708 35.6771 32.3229 35.7812C32.6354 36.3958 32.8854 37.0417 33.0729 37.7083H33.0833C33.0937 37.7604 33.1145 37.8125 33.125 37.8646C33.25 38.3125 33.3541 38.7708 33.427 39.2396C33.4375 39.3333 33.4479 39.4375 33.4583 39.5312C33.5312 40.0312 33.5625 40.5417 33.5625 41.0625Z" fill="#FFC107"/>
<path d="M31.4271 40.9478C31.4271 41.1145 31.4271 41.2916 31.4063 41.4583V41.4687C31.4063 41.4791 31.4063 41.4791 31.4063 41.4791C31.3854 42.2291 31.2813 42.9687 31.1146 43.6353C31.1146 43.677 31.1042 43.7083 31.0833 43.7499H26.2188L22.2083 42.8853L21.6771 42.7708L21.5938 42.7916L17.1458 43.7083L16.9479 43.7499H16.6667C16 43.7499 15.3438 43.6874 14.7083 43.5624C14.6146 43.5416 14.5208 43.5208 14.4271 43.4999H14.4167C13.6875 43.3437 12.9792 43.1041 12.3125 42.7916C12.2917 42.677 12.2708 42.5624 12.2604 42.4478C12.1875 41.9999 12.1562 41.5312 12.1562 41.0624C12.1562 40.8853 12.1563 40.7083 12.1667 40.5312C12.1979 39.9687 12.2812 39.4166 12.4062 38.8853C12.4896 38.4895 12.6042 38.1041 12.7396 37.7395C12.8542 37.4166 12.9896 37.1041 13.1354 36.802C13.2604 36.5416 13.4063 36.2916 13.5521 36.0416C13.6979 35.802 13.8542 35.5728 14.0208 35.3437C14.4375 34.7708 14.9271 34.2395 15.4688 33.7708C15.7813 33.4999 16.125 33.2395 16.4792 33.0103C18 32.0103 19.8229 31.427 21.7917 31.427C22.1771 31.427 22.5521 31.4478 22.9167 31.4999H22.9375C24.0521 31.6249 25.0938 31.9374 26.0521 32.4062C26.0625 32.4062 26.0625 32.4062 26.0625 32.4062C27.5729 33.1458 28.8542 34.2603 29.7917 35.6353C29.9479 35.8645 30.1042 36.1145 30.2396 36.3645C30.3542 36.5624 30.4583 36.7708 30.5521 36.9791C30.6979 37.302 30.8333 37.6458 30.9479 37.9895H30.9583C31.0729 38.3749 31.1771 38.7603 31.25 39.1666V39.177C31.3646 39.7499 31.4271 40.3437 31.4271 40.9478Z" fill="#FFD54F"/>
<path d="M29.2812 41.1667V41.198C29.2812 41.8126 29.2083 42.4167 29.0625 43.0105C29.0104 43.2605 28.9375 43.5105 28.8437 43.7501H24.177L21.7916 43.0938L19.4062 43.7501H16.6666C16 43.7501 15.3437 43.6876 14.7083 43.5626C14.6875 43.5313 14.677 43.5001 14.6666 43.4688C14.5208 43.0209 14.4062 42.573 14.3541 42.1042C14.3125 41.8022 14.2916 41.4897 14.2916 41.1667C14.2916 41.0417 14.2916 40.9063 14.3125 40.7813C14.3229 40.2918 14.3958 39.8126 14.5208 39.3542C14.5833 39.0417 14.677 38.7397 14.802 38.448C14.8437 38.3022 14.9062 38.1667 14.9791 38.0313C15.1354 37.6772 15.3229 37.3334 15.5312 37.0001C15.7604 36.6667 16.0104 36.3542 16.2916 36.0626C16.625 35.6876 17 35.3438 17.427 35.0626C18.1562 34.5313 18.9895 34.1355 19.8958 33.9167C20.5 33.7501 21.1354 33.6667 21.7916 33.6667C23.875 33.6667 25.7395 34.5001 27.0937 35.8438C27.1458 35.8959 27.2083 35.9584 27.2604 36.0313H27.2708C27.4166 36.1876 27.552 36.3438 27.6875 36.5209C28.0729 37.0105 28.3958 37.5417 28.6458 38.1251C28.7708 38.3959 28.875 38.6772 28.9583 38.9688C28.9687 39.0105 28.9791 39.0417 28.9895 39.0834C29.1354 39.5938 29.2291 40.1251 29.25 40.6772C29.2708 40.8334 29.2812 41.0001 29.2812 41.1667Z" fill="#FFE082"/>
<path d="M27.1458 41.1667C27.1458 41.5937 27.0937 42 26.9792 42.3854C26.875 42.8021 26.7187 43.1979 26.5208 43.5729C26.4896 43.6354 26.4167 43.75 26.4167 43.75H17.1667C17.1562 43.7396 17.1458 43.7187 17.1458 43.7083C17.0208 43.5104 16.9167 43.3125 16.8333 43.0937C16.625 42.6146 16.5 42.0937 16.4583 41.5521C16.4375 41.4271 16.4375 41.2917 16.4375 41.1667C16.4375 41.1042 16.4375 41.0313 16.4479 40.9688C16.4583 40.5104 16.5208 40.0729 16.6458 39.6667C16.75 39.2917 16.8854 38.9479 17.0625 38.6146C17.0625 38.6146 17.0729 38.6042 17.0729 38.5937C17.1979 38.375 17.3333 38.1562 17.4896 37.9479C18 37.2604 18.6771 36.6979 19.4583 36.3333C19.4688 36.3333 19.4688 36.3333 19.4688 36.3333C19.7188 36.2083 19.9792 36.1042 20.25 36.0312C20.25 36.0312 20.25 36.0312 20.2604 36.0312C20.7396 35.8854 21.2604 35.8125 21.7917 35.8125C22.4063 35.8125 23 35.9062 23.5417 36.1042C23.7396 36.1562 23.9271 36.2396 24.1146 36.3333C24.1146 36.3333 24.1146 36.3333 24.125 36.3333C25.0208 36.7604 25.7812 37.4271 26.3021 38.2604C26.4062 38.4167 26.5 38.5833 26.5833 38.7604C26.625 38.8333 26.6667 38.9167 26.6979 38.9896C26.9375 39.5312 27.0833 40.125 27.125 40.75C27.1354 40.8021 27.1354 40.8542 27.1354 40.9167C27.1458 41 27.1458 41.0833 27.1458 41.1667Z" fill="#FFECB3"/>
<path d="M31.25 11.4583H18.75C14.6875 11.4583 11.4584 14.6874 11.4584 18.7499V31.2499C11.4584 35.3124 14.6875 38.5416 18.75 38.5416H31.25C35.3125 38.5416 38.5417 35.3124 38.5417 31.2499V18.7499C38.5417 14.6874 35.3125 11.4583 31.25 11.4583Z" stroke="white" stroke-width="2" stroke-miterlimit="10" stroke-linecap="round" stroke-linejoin="round"/>
<path d="M32.2917 17.7083C32.867 17.7083 33.3333 17.242 33.3333 16.6667C33.3333 16.0914 32.867 15.625 32.2917 15.625C31.7164 15.625 31.25 16.0914 31.25 16.6667C31.25 17.242 31.7164 17.7083 32.2917 17.7083Z" fill="white"/>
<path d="M25 31.25C28.4518 31.25 31.25 28.4518 31.25 25C31.25 21.5482 28.4518 18.75 25 18.75C21.5482 18.75 18.75 21.5482 18.75 25C18.75 28.4518 21.5482 31.25 25 31.25Z" stroke="white" stroke-width="2" stroke-miterlimit="10" stroke-linecap="round" stroke-linejoin="round"/>
</svg>
