<svg width="24" height="24" viewBox="0 0 24 24" fill="none" xmlns="http://www.w3.org/2000/svg">
<path d="M8.26607 0.0125027C6.04687 0.250774 4.25749 1.0637 2.73441 2.53071C1.30478 3.90896 0.421771 5.60957 0.0807142 7.64656C-0.026742 8.31466 -0.026742 9.59479 0.0807142 10.2629C0.421771 12.2999 1.30478 14.0005 2.73441 15.3787C5.10779 17.668 8.42492 18.4669 11.5598 17.5138C12.5923 17.1961 13.5828 16.6775 14.3677 16.0375C14.4791 15.948 14.6451 16.0194 14.6568 16.1618L14.6574 16.1683C14.6714 16.3599 14.7134 16.5748 14.7508 16.6448C14.7929 16.7196 16.344 18.2987 18.2034 20.1488C21.4458 23.3866 21.5906 23.522 21.8616 23.6248C22.4503 23.8397 23.0062 23.7136 23.4734 23.2557C23.6977 23.0361 23.7631 22.938 23.8285 22.7091C23.8986 22.4708 23.8986 22.3961 23.8519 22.1531C23.8192 21.999 23.7304 21.7794 23.6603 21.6626C23.5856 21.5458 22.0438 19.9807 20.2404 18.1773C16.685 14.6312 16.8065 14.7387 16.2272 14.6686C16.101 14.6546 15.9982 14.6265 15.9982 14.6079C15.9982 14.5892 16.0683 14.4817 16.1571 14.3649C16.8299 13.4866 17.4512 12.0569 17.7035 10.8002C18.1193 8.74448 17.8577 6.76822 16.928 4.9368C15.6058 2.32982 13.1904 0.573143 10.275 0.101271C9.8125 0.0265179 8.63049 -0.0248737 8.26607 0.0125027ZM9.78914 2.27843C11.7654 2.53539 13.4847 3.60995 14.5686 5.26384C16.6103 8.37539 15.7413 12.5428 12.6344 14.5798C9.52284 16.6215 5.35541 15.7525 3.31841 12.6456C1.27675 9.53405 2.14574 5.36662 5.25262 3.32963C6.58882 2.45129 8.21935 2.07286 9.78914 2.27843Z" fill="#BCBCBC"/>
</svg>
