<svg width="70" height="70" viewBox="0 0 70 70" fill="none" xmlns="http://www.w3.org/2000/svg">
<path d="M69.3191 28.1452H66.4999V27.9999H34.9999V41.9999H54.7802C51.8944 50.1497 44.1402 55.9999 34.9999 55.9999C23.4027 55.9999 14 46.5972 14 34.9999C14 23.4027 23.4027 14 34.9999 14C40.3532 14 45.2234 16.0195 48.9317 19.3182L58.8314 9.41848C52.5804 3.59274 44.2189 0 34.9999 0C15.6712 0 0 15.6712 0 34.9999C0 54.3287 15.6712 69.9999 34.9999 69.9999C54.3287 69.9999 69.9999 54.3287 69.9999 34.9999C69.9999 32.6532 69.7584 30.3624 69.3191 28.1452Z" fill="#FBC02D"/>
<path d="M4.03549 18.7092L15.5347 27.1425C18.6462 19.439 26.1817 14 34.9999 14C40.3532 14 45.2234 16.0195 48.9317 19.3182L58.8314 9.41848C52.5804 3.59274 44.2189 0 34.9999 0C21.5565 0 9.89798 7.58974 4.03549 18.7092Z" fill="#E53935"/>
<path d="M34.9999 69.9999C44.0404 69.9999 52.2549 66.5402 58.4657 60.9139L47.6332 51.7475C44.1192 54.4092 39.7512 56 34.9999 56C25.8965 56 18.1667 50.1952 15.2547 42.0945L3.84126 50.8882C9.63374 62.2229 21.3972 69.9999 34.9999 69.9999Z" fill="#4CAF50"/>
<path d="M69.3191 28.1455L69.2912 28.0002H66.4999H35V42.0002H54.7802C53.3942 45.915 50.8759 49.2907 47.6279 51.7495L47.6332 51.746L58.4657 60.9124C57.6992 61.6089 69.9999 52.5002 69.9999 35.0002C69.9999 32.6535 69.7584 30.3627 69.3191 28.1455Z" fill="#1565C0"/>
</svg>
