<svg width="53" height="50" viewBox="0 0 53 50" fill="none" xmlns="http://www.w3.org/2000/svg">
<path d="M0 25C0 11.1929 11.1929 0 25 0H27.4811C41.2882 0 52.4811 11.1929 52.4811 25C52.4811 38.8071 41.2882 50 27.4811 50H25C11.1929 50 0 38.8071 0 25Z" fill="#2C2C2C"/>
<path d="M37.4439 25.7071C37.8345 25.3166 37.8345 24.6834 37.4439 24.2929L31.08 17.9289C30.6895 17.5384 30.0563 17.5384 29.6658 17.9289C29.2752 18.3195 29.2752 18.9526 29.6658 19.3431L35.3226 25L29.6658 30.6569C29.2752 31.0474 29.2752 31.6805 29.6658 32.0711C30.0563 32.4616 30.6895 32.4616 31.08 32.0711L37.4439 25.7071ZM15.7444 26H36.7368V24H15.7444V26Z" fill="#BCBCBC"/>
</svg>
