<svg width="50" height="50" viewBox="0 0 50 50" fill="none" xmlns="http://www.w3.org/2000/svg">
<path d="M25 4.16675C13.4937 4.16675 4.16663 13.4938 4.16663 25.0001C4.16663 36.5063 13.4937 45.8334 25 45.8334C36.5062 45.8334 45.8333 36.5063 45.8333 25.0001C45.8333 13.4938 36.5062 4.16675 25 4.16675Z" fill="url(#paint0_linear_63_203)"/>
<path opacity="0.05" d="M32.7197 35.4166C31.4854 35.4166 30.875 34.6145 30.0281 33.5062C29.702 33.077 29.301 32.551 28.7656 31.9291C27.9302 30.953 27.3864 30.5301 27.0823 30.3468V33.2353C27.0823 35.4166 25.002 35.4166 24.1135 35.4166C20.8281 35.4166 17.2916 33.2614 14.6541 29.651C11.1948 24.9187 10.4166 20.6708 10.4166 19.5562C10.4166 18.4166 11.1708 17.7083 12.3854 17.7083H15.1395C16.7479 17.7083 17.1666 18.9905 17.3468 19.5374C18.1593 22.2603 19.125 24.1812 19.7927 25.2114V22.226C19.7458 21.3895 19.5114 21.0676 19.2635 20.727C19.0468 20.4312 18.75 20.026 18.75 19.4176C18.75 18.4593 19.4906 17.7083 20.4364 17.7083H25.2781C25.8208 17.7083 27.0833 17.9124 27.0833 19.8062V24.828C27.1281 24.7864 27.1791 24.7353 27.2385 24.6718C29.0489 22.5374 30.6968 19.1645 30.7135 19.1312C31.1281 18.2051 31.8666 17.7083 32.8448 17.7083H35.5718C36.8541 17.7083 37.4635 18.5364 37.4989 19.3583C37.5093 19.6051 37.4718 19.8697 37.3875 20.1426C37.1802 21.1728 36.0198 23.2124 33.6343 26.7051L33.4343 27.003C33.4198 27.027 33.4 27.0614 33.3791 27.0968C33.3854 27.1051 33.3906 27.1135 33.3979 27.1228C33.6927 27.5447 34.4291 28.4343 34.9166 29.0228C36.0812 30.4301 37.1208 32.026 37.3875 32.8197C37.4729 33.1353 37.5052 33.3791 37.5 33.6176C37.475 34.5145 36.8302 35.4166 35.4468 35.4166H32.7197Z" fill="black"/>
<path opacity="0.07" d="M32.7197 34.8958C31.7437 34.8958 31.2541 34.2541 30.4416 33.1896C30.1104 32.7541 29.7031 32.2208 29.1614 31.5885C27.6499 29.8239 26.9635 29.6864 26.7885 29.6864C26.6635 29.6864 26.6041 29.6958 26.5802 29.701C26.5927 29.7146 26.5614 29.8312 26.5614 30.1385V33.2333C26.5614 34.6114 25.5833 34.8937 24.1135 34.8937C20.9937 34.8937 17.6145 32.8177 15.0739 29.3416C11.6968 24.7208 10.9364 20.625 10.9364 19.5541C10.9364 18.6989 11.4499 18.2271 12.3843 18.2271H15.1385C16.2739 18.2271 16.6177 18.9864 16.851 19.6979C18.076 23.8 19.6958 26.275 20.2781 26.5406C20.2958 26.451 20.3124 26.2875 20.3124 25.9979V22.2239C20.2562 21.2041 19.952 20.7875 19.6833 20.4177C19.4895 20.1541 19.2708 19.8541 19.2708 19.4177C19.2708 18.7406 19.7718 18.2291 20.4364 18.2291H25.2781C26.1291 18.2291 26.5614 18.7593 26.5614 19.8062V25.2073C26.5614 25.475 26.7249 25.5229 26.7322 25.5239C26.9687 25.5208 27.1489 25.5208 27.6156 25.0312C29.4885 22.825 31.1666 19.3906 31.1833 19.3562C31.5145 18.6135 32.0749 18.2291 32.8447 18.2291H35.5718C36.5739 18.2291 36.9541 18.8239 36.9781 19.3802C36.9864 19.5666 36.9562 19.7718 36.8895 19.9885C36.6239 21.2906 34.6583 24.2802 33.2041 26.4114C33.1083 26.5521 33.001 26.7135 33.001 26.7135C32.9229 26.8479 32.8156 27.0312 32.8114 27.1083C32.8104 27.1343 32.8239 27.2166 32.9739 27.4271C33.2718 27.8541 33.9906 28.7218 34.5145 29.3562C35.6249 30.6979 36.6479 32.2583 36.8926 32.9864C36.9572 33.2271 36.9822 33.4239 36.9781 33.6062C36.9604 34.2312 36.5489 34.8958 35.4458 34.8958H32.7197Z" fill="black"/>
<path d="M36.3927 19.8344C36.4407 19.6771 36.4636 19.5312 36.4573 19.401C36.4417 19.024 36.1823 18.75 35.5719 18.75H32.8448C32.1563 18.75 31.8386 19.1667 31.6532 19.5844C31.6532 19.5844 29.9532 23.0833 27.9938 25.3906C27.3584 26.0583 27.0355 26.0417 26.6917 26.0417C26.5073 26.0417 26.0417 25.8187 26.0417 25.2073V19.8062C26.0417 19.0833 25.8615 18.75 25.2792 18.75H20.4365C20.0125 18.75 19.7917 19.0833 19.7917 19.4177C19.7917 20.1125 20.7271 20.2792 20.8334 22.226V26C20.8334 26.9167 20.674 27.0833 20.3302 27.0833C19.4032 27.0833 17.5782 23.9583 16.3563 19.8625C16.0917 19.0563 15.8271 18.75 15.1386 18.75H12.3855C11.5907 18.75 11.4584 19.1396 11.4584 19.5563C11.4584 20.3073 12.0834 24.3677 15.4948 29.0365C17.9688 32.4219 21.2282 34.375 24.1136 34.375C25.8615 34.375 26.0407 33.9302 26.0407 33.2354V30.1396C26.0417 29.3052 26.2323 29.1667 26.7886 29.1667C27.1855 29.1667 27.9948 29.4271 29.5573 31.25C31.3594 33.3521 31.6865 34.375 32.7198 34.375H35.4469C36.0802 34.375 36.4438 34.1094 36.4584 33.5937C36.4615 33.4625 36.4427 33.3156 36.4 33.1521C36.198 32.5521 35.2709 31.0854 34.1146 29.6875C33.474 28.9135 32.8417 28.1469 32.5511 27.7302C32.3563 27.4583 32.2823 27.2667 32.2917 27.0833C32.3011 26.8906 32.4011 26.7073 32.5511 26.451C32.524 26.451 36.049 21.5021 36.3927 19.8344Z" fill="white"/>
<defs>
<linearGradient id="paint0_linear_63_203" x1="10.1729" y1="5.85946" x2="39.4281" y2="43.6261" gradientUnits="userSpaceOnUse">
<stop stop-color="#33BEF0"/>
<stop offset="1" stop-color="#0A85D9"/>
</linearGradient>
</defs>
</svg>
