<?xml version="1.0" encoding="UTF-8" standalone="no"?>
<!-- Created with Inkscape (http://www.inkscape.org/) -->

<svg
   width="70"
   height="70"
   viewBox="0 0 110.95386 109.23473"
   version="1.1"
   id="svg5"
   xml:space="preserve"
   inkscape:version="1.2.2 (732a01da63, 2022-12-09)"
   sodipodi:docname="logo github.svg"
   xmlns:inkscape="http://www.inkscape.org/namespaces/inkscape"
   xmlns:sodipodi="http://sodipodi.sourceforge.net/DTD/sodipodi-0.dtd"
   xmlns="http://www.w3.org/2000/svg"
   xmlns:svg="http://www.w3.org/2000/svg"><sodipodi:namedview
     id="namedview7"
     pagecolor="#ffffff"
     bordercolor="#000000"
     borderopacity="0.25"
     inkscape:showpageshadow="2"
     inkscape:pageopacity="0.0"
     inkscape:pagecheckerboard="0"
     inkscape:deskcolor="#d1d1d1"
     inkscape:document-units="mm"
     showgrid="false"
     inkscape:zoom="0.74564395"
     inkscape:cx="368.80873"
     inkscape:cy="887.8232"
     inkscape:window-width="1920"
     inkscape:window-height="1017"
     inkscape:window-x="1358"
     inkscape:window-y="-8"
     inkscape:window-maximized="1"
     inkscape:current-layer="layer1" /><defs
     id="defs2" /><g
     inkscape:label="Слой 1"
     inkscape:groupmode="layer"
     id="layer1"
     transform="translate(-8.1003153,-3.5501436)"><path
       style="fill:#000000;stroke-width:0.264583"
       d="m 44.098418,111.98351 c -3.33823,-1.24036 -7.84162,-3.56448 -11.01475,-5.68452 C 19.721255,97.371274 11.146043,83.893871 8.5687185,67.769591 7.9405065,63.839371 7.9450235,55.153251 8.5773185,51.269251 10.848497,37.317635 17.548996,25.259045 27.797399,16.679745 42.725238,4.1831214 62.438715,0.32558841 80.727796,6.3223264 106.54811,14.788447 122.50507,40.861691 118.41788,67.906921 c -2.74397,18.157053 -14.32684,34.004069 -30.653924,41.938919 -3.54294,1.72184 -6.73795,2.93904 -7.71467,2.93904 -1.04296,0 -1.93071,-0.55015 -2.36518,-1.46571 -0.34552,-0.72814 -0.41024,-2.32685 -0.41353,-10.21595 -0.003,-7.324636 -0.0889,-9.713106 -0.39575,-11.014686 -0.446901,-1.89554 -1.183201,-3.46259 -2.284751,-4.86264 l -0.7619,-0.968363 1.12784,-0.17149 c 8.973951,-1.36449 14.685781,-4.06457 18.576461,-8.78141 3.52744,-4.27648 5.43249,-10.62811 5.43628,-18.12512 0.003,-5.97508 -1.58315,-10.8571 -4.72614,-14.54645 l -0.89125,-1.04617 0.44083,-1.57111 c 0.96758,-3.448416 0.72261,-8.554606 -0.57917,-12.072376 -0.44344,-1.19827 -0.53944,-1.28581 -1.49684,-1.36476 -2.51862,-0.20768 -7.61602,1.65852 -12.01197,4.39768 l -2.20047,1.37113 -3.223491,-0.64881 c -7.69984,-1.54978 -15.24635,-1.45308 -22.807937,0.29225 l -1.85737,0.42871 -1.93582,-1.25227 c -4.0684,-2.63184 -9.31119,-4.63662 -12.12539,-4.63662 -1.29814,0 -1.36042,0.0888 -2.11343,3.01463 -0.87742,3.40919 -0.88211,8.34384 -0.0103,10.856816 l 0.3605,1.03916 -1.26797,1.67522 c -3.555273,4.69717 -4.930074,10.4168 -4.227796,17.58904 1.378916,14.08261 8.682436,21.30171 23.634986,23.3618 l 1.24586,0.17165 -0.88765,1.242193 c -1.06146,1.48545 -1.65754,2.8516 -2.10049,4.81407 l -0.32845,1.45521 -1.70423,0.57859 c -3.43726,1.16694 -6.57151,1.06523 -9.37715,-0.30432 -1.70593,-0.83274 -3.24142,-2.32268 -4.85598,-4.71194 -2.33726,-3.458723 -5.129008,-5.513703 -8.030847,-5.911443 -1.329005,-0.18217 -2.992872,0.24228 -3.214574,0.82002 -0.208838,0.54423 0.736807,1.60158 2.508224,2.80453 1.997551,1.356513 3.676615,3.471643 5.023157,6.327693 0.58317,1.23692 1.20218,2.54661 1.37558,2.91041 0.52788,1.10752 3.17468,3.60237 4.57411,4.31151 2.53204,1.28309 4.20994,1.630506 7.77971,1.610856 1.81901,-0.01 3.80744,-0.14204 4.41873,-0.293396 0.61129,-0.15135 1.17683,-0.20979 1.25677,-0.12986 0.0799,0.0799 0.14533,2.518516 0.14533,5.419066 0,5.75711 -0.1943,6.71542 -1.48041,7.30141 -1.00181,0.45646 -1.89083,0.35007 -4.17896,-0.50012 z"
       id="path179"
       inkscape:export-filename="path179.png"
       inkscape:export-xdpi="96"
       inkscape:export-ydpi="96" /></g></svg>
