<svg width="70" height="70" viewBox="0 0 70 70" fill="none" xmlns="http://www.w3.org/2000/svg">
<g clip-path="url(#clip0_197_62)">
<path d="M67.816 2.88062e-07H2.18455C1.89773 -0.000148717 1.61368 0.05751 1.34865 0.169682C1.08361 0.281855 0.842778 0.446342 0.639909 0.653748C0.43704 0.861153 0.276109 1.10741 0.166311 1.37845C0.0565134 1.6495 2.44484e-07 1.94001 2.81476e-07 2.2334V67.7643C-0.00014539 68.0579 0.0562522 68.3486 0.165971 68.6198C0.27569 68.891 0.43658 69.1375 0.639449 69.3451C0.842318 69.5527 1.08319 69.7174 1.34831 69.8298C1.61342 69.9422 1.89758 70 2.18455 70H67.816C68.1029 70 68.3871 69.9422 68.6522 69.8298C68.9173 69.7174 69.1581 69.5527 69.3609 69.3451C69.5637 69.1375 69.7246 68.891 69.8342 68.6197C69.9439 68.3485 70.0002 68.0578 70 67.7643V2.23397C70.0001 1.94058 69.9436 1.65005 69.8339 1.37898C69.7242 1.10791 69.5633 0.861607 69.3605 0.654149C69.1577 0.446691 68.9169 0.28214 68.6519 0.169899C68.3869 0.057658 68.1028 -7.42237e-05 67.816 2.88062e-07Z" fill="#DC4A38"/>
<path d="M36.7463 38.4153L34.5379 36.6612C33.8653 36.0906 32.9455 35.3374 32.9455 33.9587C32.9455 32.5743 33.8653 31.6941 34.6643 30.8791C37.237 28.8079 39.8069 26.6035 39.8069 21.958C39.8069 17.181 36.8683 14.668 35.4599 13.4758H39.258L43.2434 10.9141H31.1679C27.8545 10.9141 23.0795 11.716 19.5837 14.668C16.9489 16.9933 15.6637 20.1993 15.6637 23.0855C15.6637 27.985 19.3414 32.9515 25.8363 32.9515C26.4489 32.9515 27.1198 32.8902 27.7951 32.8256C27.4919 33.5804 27.1852 34.2083 27.1852 35.2756C27.1852 37.2215 28.1628 38.4142 29.0244 39.5445C26.2643 39.7385 21.1129 40.0515 17.3159 42.4392C13.6992 44.6391 12.5986 47.8406 12.5986 50.1013C12.5986 54.753 16.8846 59.0859 25.7736 59.0859C36.3138 59.0859 41.8938 53.1202 41.8938 47.2145C41.8944 42.8759 39.4437 40.74 36.7463 38.4153ZM28.7183 31.1916C23.4454 31.1916 21.0574 24.2192 21.0574 20.0121C21.0574 18.3737 21.3607 16.683 22.4036 15.3622C23.3867 14.1042 25.0988 13.2881 26.6973 13.2881C31.7806 13.2881 34.417 20.3229 34.417 24.8476C34.417 25.9796 34.295 27.9856 32.8856 29.4358C31.8992 30.4419 30.2497 31.1916 28.7183 31.1916ZM28.7788 56.4538C22.2218 56.4538 17.9935 53.2455 17.9935 48.7844C17.9935 44.3244 21.914 42.8163 23.263 42.3167C25.8363 41.4308 29.1464 41.3077 29.6986 41.3077C30.3107 41.3077 30.6179 41.3077 31.1058 41.3701C35.7666 44.7633 37.7903 46.4551 37.7903 49.6674C37.7903 53.5569 34.6637 56.4538 28.7788 56.4538ZM52.2233 31.0958V24.8147H49.1905V31.0958H43.0599V34.2327H49.1905V40.5523H52.2233V34.2327H58.385V31.0958H52.2233Z" fill="white"/>
</g>
<defs>
<clipPath id="clip0_197_62">
<rect width="70" height="70" fill="white"/>
</clipPath>
</defs>
</svg>
