<svg width="70" height="46" viewBox="0 0 70 46" fill="none" xmlns="http://www.w3.org/2000/svg">
<path d="M14.2836 0H0.00012207L11.6123 9.3523C14.7197 11.8829 21.687 17.2192 24.6964 18.3195C27.7057 19.4198 36.1268 19.4014 39.9612 19.2547L58.2244 19.4198C59.5146 19.3831 62.6839 19.4748 65.0391 20.135C67.3942 20.7951 69.0188 21.877 69.4004 22.3355C69.4004 22.3355 68.9643 21.2902 65.5297 19.6949C62.0951 18.0995 54.7353 18.1545 51.4098 17.9894C48.0842 17.8244 37.1808 17.3293 33.7462 15.7339C30.9986 14.4576 19.6263 4.71282 14.2836 0Z" fill="#CE242A"/>
<path d="M14.3814 44.671H0.109131L11.7121 35.3187C14.8172 32.7881 21.779 27.4518 24.786 26.3515C27.7929 25.2512 36.2074 25.2696 40.0388 25.4163L58.2877 25.2512C59.577 25.2879 62.7436 25.1962 65.0969 24.536C67.4502 23.8759 69.0736 22.794 69.4549 22.3355C69.4549 22.3355 69.0191 23.3808 65.5873 24.9761C62.1554 26.5715 54.8014 26.5165 51.4784 26.6816C48.1555 26.8466 37.2606 27.3417 33.8287 28.9371C31.0833 30.2134 19.7199 39.9582 14.3814 44.671Z" fill="#CE242A"/>
<path d="M26.8871 45.1111H17.2275C20.4474 42.2296 27.269 36.1362 28.7972 34.8148C30.7072 33.1629 33.1084 31.2358 36.1645 30.2448C39.2206 29.2537 42.3859 29.0334 46.5881 28.7581C50.7902 28.4828 59.2491 27.712 62.2507 26.9962C65.2522 26.2804 67.4897 24.7938 68.2537 24.2431C68.865 23.8027 69.4544 23.0319 69.6727 22.7014C69.7818 22.5913 70.0001 22.4372 70.0001 22.7014C70.0001 23.0319 69.3998 23.8027 68.6904 24.4634C67.9809 25.1241 66.6712 26.0601 64.1608 27.4367C61.6504 28.8132 53.0824 29.6942 49.0438 30.2448C45.0054 30.7954 43.9685 31.2358 42.1676 31.9516C40.3667 32.6675 38.6749 34.099 38.02 34.7046C37.4961 35.1892 30.3798 41.8442 26.8871 45.1111Z" fill="#004E85"/>
<path d="M26.8871 45.1111H17.2275C20.4474 42.2296 27.269 36.1362 28.7972 34.8148C30.7072 33.1629 33.1084 31.2358 36.1645 30.2448C39.2206 29.2537 42.3859 29.0334 46.5881 28.7581C50.7902 28.4828 59.2491 27.712 62.2507 26.9962C65.2522 26.2804 67.4897 24.7938 68.2537 24.2431C68.865 23.8027 69.4544 23.0319 69.6727 22.7014C69.7818 22.5913 70.0001 22.4372 70.0001 22.7014C70.0001 23.0319 69.3998 23.8027 68.6904 24.4634C67.9809 25.1241 66.6712 26.0601 64.1608 27.4367C61.6504 28.8132 53.0824 29.6942 49.0438 30.2448C45.0054 30.7954 43.9685 31.2358 42.1676 31.9516C40.3667 32.6675 38.6749 34.099 38.02 34.7046C37.4961 35.1892 30.3798 41.8442 26.8871 45.1111Z" fill="#004E85"/>
<path d="M26.8871 0H17.2275C20.4474 2.8815 27.269 8.97487 28.7972 10.2963C30.7072 11.9482 33.1084 13.8753 36.1645 14.8663C39.2206 15.8574 42.3859 16.0777 46.5881 16.353C50.7902 16.6283 59.2491 17.3991 62.2507 18.1149C65.2522 18.8307 67.4897 20.3173 68.2537 20.868C68.865 21.3084 69.4544 22.0792 69.6727 22.4097C69.7818 22.5198 70.0001 22.6739 70.0001 22.4097C70.0001 22.0792 69.3998 21.3084 68.6904 20.6477C67.9809 19.987 66.6712 19.051 64.1608 17.6744C61.6504 16.2979 53.0824 15.4169 49.0438 14.8663C45.0054 14.3157 43.9685 13.8753 42.1676 13.1595C40.3667 12.4436 38.6749 11.0121 38.02 10.4064C37.4961 9.9219 30.3798 3.26692 26.8871 0Z" fill="#004E85"/>
<path d="M26.8871 0H17.2275C20.4474 2.8815 27.269 8.97487 28.7972 10.2963C30.7072 11.9482 33.1084 13.8753 36.1645 14.8663C39.2206 15.8574 42.3859 16.0777 46.5881 16.353C50.7902 16.6283 59.2491 17.3991 62.2507 18.1149C65.2522 18.8307 67.4897 20.3173 68.2537 20.868C68.865 21.3084 69.4544 22.0792 69.6727 22.4097C69.7818 22.5198 70.0001 22.6739 70.0001 22.4097C70.0001 22.0792 69.3998 21.3084 68.6904 20.6477C67.9809 19.987 66.6712 19.051 64.1608 17.6744C61.6504 16.2979 53.0824 15.4169 49.0438 14.8663C45.0054 14.3157 43.9685 13.8753 42.1676 13.1595C40.3667 12.4436 38.6749 11.0121 38.02 10.4064C37.4961 9.9219 30.3798 3.26692 26.8871 0Z" fill="#004E85"/>
</svg>
