<svg width="70" height="70" viewBox="0 0 70 70" fill="none" xmlns="http://www.w3.org/2000/svg">
<g clip-path="url(#clip0_197_61)">
<path d="M70 60.2778C70 65.6483 65.6483 70 60.2778 70H9.72222C4.35361 70 0 65.6483 0 60.2778V9.72222C0 4.35167 4.35361 0 9.72222 0H60.2778C65.6483 0 70 4.35167 70 9.72222V60.2778Z" fill="#1976D2"/>
<path d="M58.2108 23.4131C58.3003 23.1195 58.343 22.8472 58.3314 22.6042C58.3022 21.9003 57.818 21.3889 56.6786 21.3889H51.588C50.3028 21.3889 49.7097 22.1667 49.3636 22.9464C49.3636 22.9464 46.1903 29.4778 42.5328 33.7847C41.3467 35.0311 40.7439 35 40.1022 35C39.758 35 38.8889 34.5839 38.8889 33.4425V23.3606C38.8889 22.0111 38.5525 21.3889 37.4655 21.3889H28.4258C27.6344 21.3889 27.2222 22.0111 27.2222 22.6353C27.2222 23.9323 28.9683 24.2434 29.1667 27.8775V34.9222C29.1667 36.6334 28.8692 36.9445 28.2275 36.9445C26.4969 36.9445 23.0903 31.1111 20.8094 23.4656C20.3155 21.9606 19.8217 21.3889 18.5364 21.3889H13.3972C11.9136 21.3889 11.6667 22.1161 11.6667 22.8939C11.6667 24.2959 12.8333 31.8753 19.2014 40.5903C23.8194 46.9097 29.9036 50.5556 35.2897 50.5556C38.5525 50.5556 38.8869 49.7253 38.8869 48.4284V42.6495C38.8889 41.092 39.2447 40.8334 40.283 40.8334C41.0239 40.8334 42.5347 41.3195 45.4514 44.7222C48.8153 48.6461 49.4258 50.5556 51.3547 50.5556H56.4453C57.6275 50.5556 58.3061 50.0597 58.3333 49.0972C58.3392 48.8522 58.3042 48.5781 58.2244 48.2728C57.8472 47.1528 56.1167 44.415 53.9583 41.8056C52.7625 40.3609 51.5822 38.9297 51.0397 38.152C50.6761 37.6445 50.538 37.2867 50.5555 36.9445C50.573 36.5847 50.7597 36.2425 51.0397 35.7642C50.9892 35.7642 57.5692 26.5261 58.2108 23.4131Z" fill="white"/>
</g>
<defs>
<clipPath id="clip0_197_61">
<rect width="70" height="70" fill="white"/>
</clipPath>
</defs>
</svg>
